<?xml version="1.0" encoding="utf-8"?>
<!-- Generator: Adobe Illustrator 19.0.0, SVG Export Plug-In . SVG Version: 6.00 Build 0)  -->
<svg version="1.1" id="Layer_1" xmlns="http://www.w3.org/2000/svg" xmlns:xlink="http://www.w3.org/1999/xlink" x="0px" y="0px"
	 viewBox="0 0 125 140" style="enable-background:new 0 0 125 140;" xml:space="preserve">
<style type="text/css">
	.st0{fill:#FAD41B;}
</style>
<path id="XMLID_6_" class="st0" d="M123.8,52.9c-0.3-0.8-0.7-0.9-1.5-0.7c-2.3,0.6-4.6,1.3-7,1.9c-1,0.3-2.1,0.5-3.2,0.5
	c-0.5,0-1.1,0-1.5-0.3c-0.3-0.3-0.5-0.7-0.9-0.9c-0.5-0.3-1-0.1-1.1-0.8c-0.1-0.5,0-0.8-0.1-1.3c-0.3-0.8-1.1-1.4-1.8-1.8
	c-1.1-0.6-2-1.2-2.9-2.1c-0.8-0.8-1.5-1.6-2.3-2.5c-0.3-1.4-0.4-2.8-0.7-4.2c-0.1-0.5-0.3-1.1-0.6-1.5c-0.2-0.2-0.4-0.3-0.6-0.5
	c-0.5-0.4-0.5-0.6-0.6-1.2c-0.1-1.3-1-2-2-2.9c-0.7-0.6-1.2-1.2-1-2.1c0.1-0.6,0.3-1.1,0.2-1.8c-0.3-1.3-1.4-2.3-2.1-3.4
	c-0.8-1.3-1.5-2.7-2.1-4.1c-0.3-0.8-0.6-1.5-0.9-2.3c-0.1-0.3-0.3-0.7-0.4-1.1c0,0,0.1,0,0.1,0c0.4-0.2,0.6-0.5,0.6-0.9
	c0.1-1.2-1.1-2.1-1.7-2.9c-0.3-0.4-0.2-1-0.5-1.3c-0.3-0.3-0.8-0.4-1.2-0.3c-0.5,0-1.1,0.2-1.5,0.5c-0.5,0.3-0.9,0.8-1.4,1
	c-0.6-0.3-1-0.9-1.6-1.2c-0.6-0.3-1.2-0.4-1.9-0.4c-1.5,0-3,0.8-4.5,0.5c-1.6-0.3-2.3-2.1-3.9-2.6c-0.6-0.2-1.2-0.2-1.7,0.1
	c-0.3,0.2-0.5,0.4-0.7,0.7c-0.1,0.1-0.2,0.2-0.3,0.3c-0.4,0.3-0.5,0.1-0.8-0.1c-1.1-0.6-2.1,0.1-2.1,1.3c0,0.3,0.1,0.6,0.2,0.9
	c0.1,0.3,0.6,1,0.5,1.2c-0.2,0.6-0.9,0-1.2-0.1c-0.4-0.2-0.8-0.4-1.2-0.5c-0.7-0.1-1.4,0-2.2,0c-1.1,0-1.3-0.6-1.9-1.3
	c-1-1.2-2.5-0.6-3.8-1.3c-1.3-0.7-2.3-2-3.6-2.8c-0.3-0.2-0.6-0.3-0.8-0.4c-0.4-0.1-1-0.1-1.4-0.3c-0.7-0.4,0-0.6,0.3-0.8
	c0.3-0.2,0.5-0.3,0.7-0.6c0.1-0.2,0.1-0.5-0.2-0.7c-0.3-0.2-0.5-0.6-0.3-1c0.1-0.3,0.5-0.4,0.7-0.6C53.8,5.8,54,5.4,54,5
	c0-0.3-0.2-0.6-0.5-0.7c-0.1,0-0.4,0-0.5-0.1c-0.2-0.1-0.1-0.5-0.2-0.7c-0.3-0.9-1.3-1.3-2.2-1.3c-0.7,0-1.3,0.2-1.9,0.4
	C47.8,2.8,47,2.9,46.2,3c-2.9,0.3-5.7,0.2-8.6,0.8c-1.2,0.3-2.6,0.4-3.7,1.1C33.4,5.2,33,5.6,32.6,6c-0.6,0.6-1.4,0.9-2.3,1
	c-0.2,0-0.3,0.1-0.4,0.3c-2.1,0.7-4.4,0.4-6.3-0.9c-0.3-0.2-0.7,0.1-0.7,0.4c-0.2,2.5-2.8,3.3-4.6,4.6c-0.9,0.7-1.7,1.4-2.5,2.1
	c-0.6,0.5-1.1,1.1-0.9,1.9c0.1,0.3,0.5,0.6,0.5,1c-0.1,0.3-0.4,0.5-0.5,0.7c-0.4,0.5-0.9,1-1,1.7c0,0.4,0,0.7,0.1,1
	c0.1,0.7-0.7,0.9-1.2,1.1c-0.9,0.4-2,0.8-2.7,1.5c-0.6,0.6-0.5,1.6-1,2.3c-0.6,0.8-1.4,1.4-2.1,2.1c-1.2,1.4-1.7,3.1-2.6,4.7
	c-0.7,1.2-2.9,2.5-2.1,4.2c0.1,0.2,0.3,0.5,0.5,0.6c0.4,0.2,0.8,0.2,1.1,0.4c0.7,0.6-0.1,2.1,0.2,3c0.1,0.4,0.4,0.7,0.7,1.1
	c0.5,0.7,0.7,1.2,0.3,2c-0.5,1-1.2,1.8-2,2.6C2.5,46.2,2,46.9,2,47.8c0,0.6,0.3,1,0.7,1.3c-0.1,0.2-0.1,0.5,0.1,0.7
	c1,0.7,1.7,1.6,2.2,2.8c0.1,0.3,0.3,0.7,0.6,0.9c0.4,0.3,1.2,0.2,1.5,0.7c0.2,0.3,0.2,0.9,0.3,1.2c0.2,0.5,0.5,0.9,0.8,1.3
	c0.8,1,1.8,2,2.7,3.1c1.5,1.7,2.9,3.7,4.9,4.9c1.9,1.1,4.3,1.2,6.3,0.3c0.3-0.1,0.5-0.3,0.8-0.4c0.4-0.1,0.6,0,0.9,0.3
	c0.4,0.3,0.8,0.5,1.2,0.5c1.1,0.1,2.2-0.5,3.4-0.6c1.2-0.1,2.2-0.2,3.3-0.5c1.1-0.3,2.1-0.8,3.2-1.2c1.1-0.4,2.2-0.8,3.3-0.8
	c0.5,0,1.1,0.1,1.5,0.3c0.7,0.3,0.8,0.8,1.1,1.4c0.7,1.8,2.8,1.7,4.3,1.2c0.6-0.2,1.2-0.4,1.9-0.4c0.9,0,1.4,0.5,1.8,1.2
	c0.4,0.6,0.8,1.3,0.7,2c-0.1,0.6-0.6,0.9-0.9,1.3c-0.2,0.4-0.2,0.7,0,1.1c0.2,0.3,0.3,0.6,0.3,1c0,0.4-0.2,0.7-0.4,1
	c-0.3,0.7-0.5,1.4-0.3,2.1c0,0.1,0,0.2,0.1,0.2c0,0,0,0,0,0c0.1,0.1,0.1,0.3,0.3,0.4c0,0,0.1,0.1,0.1,0.1c1.5,2.2,3.5,4.1,4.9,6.4
	c0.8,1.2,1.4,2.6,1.6,4c0.1,0.6,0.1,1.2,0.3,1.8c0.2,0.6,0.7,0.8,1,1.2c0.4,0.5,0,1.4,0.1,2c0.1,0.7,0.3,1.3,0.5,2
	c0.5,1.6,0.2,2.9-0.7,4.3c-0.8,1.3-2,2.3-3,3.5c-0.8,0.9-1,1.8-0.2,2.8c0.9,1.2,2.1,2.1,2.1,3.7c0,1.5,0.9,2.9,1.5,4.3
	c-0.1,0.1-0.1,0.3,0,0.4c0.3,0.6,0.7,1.3,1,1.9c0.4,0.7,1.2,1.8,1,2.6c-0.1,0.5-0.5,0.9-0.5,1.4c0,0.5,0.2,1,0.5,1.5
	c0.4,0.6,0.7,1.1,0.8,1.8c0.1,0.6,0.1,1.2,0.1,1.9c0.2,1.3,0.9,2,1.8,2.8c1.1,0.9,1.6,2.2,2.1,3.4c0.3,0.7,0.7,1.4,1,2.1
	c0.4,0.8,0.8,1.7,0.6,2.6c-0.2,0.5-0.5,0.9-0.4,1.4c0,0.5,0.3,1,0.6,1.3c0.7,0.9,1.6,1.8,2.7,2.3c1,0.4,2,0.3,3-0.1
	c0.6-0.2,1.1-0.6,1.7-0.8c0.7-0.3,1.5-0.3,2.3-0.4c1.3,0,2.6-0.2,3.8-0.7c1.2-0.5,2.3-1.3,3.2-2.1c1.1-1,2.1-2,3.1-3
	c1-0.9,2-1.8,2.9-2.8c1.6-1.8,2.8-4.2,2.1-6.6c-0.1-0.4-0.4-0.7-0.2-1.1c0.2-0.3,0.5-0.4,0.8-0.5c0.5-0.3,1-0.6,1.4-1
	c0.4-0.4,0.8-0.9,1-1.5c0.3-0.8,0.5-1.3,1.2-1.8c1.1-0.8,1.3-1.8,1-3.1c-0.2-0.8-0.5-1.6-0.6-2.4c-0.1-0.9,0-1.8,0.1-2.7
	c0.1,0,0.2-0.1,0.2-0.1c1.1-1,2.2-1.9,3.5-2.6c1-0.6,2.1-1,3-1.7c0.9-0.7,1.6-1.5,2.1-2.6c0.5-1.2,0.8-2.4,1.5-3.5
	c0.8-1.1,0.7-2,0.3-3.2c-0.4-1.3-1-2.3-1.7-3.4c-0.8-1.3-1.1-2.5-1.2-4c-0.2-1.4-0.3-2.8-0.3-4.2c0-0.8,0.2-1.4,0.8-1.9
	c0.5-0.4,0.9-0.7,1.1-1.3c0.4-1-0.1-4.1,1.7-3.8c0.2,0,0.3-0.1,0.4-0.2c0.1,0,0.1-0.1,0.2-0.2c0.9-1.4,2.4-2.2,3.6-3.3
	c0.5-0.5,0.9-1,1.2-1.6c0.4-0.9,0.4-2,1.1-2.7c0.6-0.6,1.6-0.8,2.4-1.1c0.8-0.3,1.5-0.8,2.2-1.4c1.4-1.2,3-2.6,3.9-4.2
	c0.5-0.9,0.9-1.8,1.2-2.8c0.4-1,0.8-1.9,1-3C124,54.5,124.1,53.7,123.8,52.9z"/>
<path id="XMLID_5_" class="st0" d="M122.1,100.8c-0.2-0.6-0.5-1.1-0.3-1.8c0.1-0.5,0.1-1-0.1-1.4c0-0.1,0-0.3-0.1-0.4
	c-0.6-0.7-1.1-1.3-1.7-2c-0.1-0.2-0.4-0.2-0.6-0.1c-0.1,0-0.3,0.1-0.3,0.3c-0.3,1.5-1.6,2.5-3.1,2.5c-0.3,0-0.6,0.3-0.5,0.6
	c0.1,0.2,0.2,0.5,0.3,0.7c-0.8,0.2-1.5,0.4-2.3,0.6c-0.5,0.1-0.4,0.8,0,1c0.4,0.2-0.7,0.7-0.8,0.8c-0.3,0.1-0.5,0.2-0.8,0.3
	c-0.6,0.3-1.1,0.6-1.6,1.1c-0.9,0.9-1.5,2-1.8,3.2c-0.1,0.3,0.1,0.6,0.5,0.6c0.6,0,1.4-0.1,1.7,0.6c0.2,0.6-0.1,1.6-0.2,2.2
	c-0.1,0.8,0,1.8-0.6,2.3c-0.4,0.3-0.7,0.5-0.9,0.9c-0.4,0.9,0.2,1.7,0.4,2.5c0.2,0.6,0.1,0.9,0.1,1.6c0,0.5,0.2,0.8,0.5,1.1
	c1.7,1.5,4.5,2.5,6.2,0.5c0.8-0.9,1.3-2.1,1.8-3.2c0.6-1.3,1.2-2.6,1.7-3.9c1-3,1.1-6.1,1.3-9.2c0.5,0.1,0.9,0,1.1-0.6
	C122.2,101.4,122.2,101.1,122.1,100.8z"/>
</svg>
