<?xml version="1.0" encoding="utf-8"?>
<!-- Generator: Adobe Illustrator 19.0.0, SVG Export Plug-In . SVG Version: 6.00 Build 0)  -->
<svg version="1.1" id="Layer_1" xmlns="http://www.w3.org/2000/svg" xmlns:xlink="http://www.w3.org/1999/xlink" x="0px" y="0px"
	 viewBox="0 0 395 47" style="enable-background:new 0 0 395 47;" xml:space="preserve">
<style type="text/css">
	.st0{fill:#3F77BA;}
</style>
<path id="XMLID_5_" class="st0" d="M224.4,21c-1.3-1.3-3-1.4-4.8-2.2c-1.6-0.8-3-2-4.7-2.4c-2.6-0.6-4.1,0.6-6.2,1.9
	c-3,1.9-4,1.4-6.2-1.4c-0.4-0.5-0.7-1.2-1.2-1.7c-0.8-0.8-0.5-0.6-0.8-0.7c-2.5-0.3-5.1-0.7-7.6-0.8c-12.2-0.6-23.4-1.7-34.3-7.1
	c-6-3-11.9-5.2-18.7-5c-5.6,0.2-11,1.9-16.1,4.1c-16.4,7.1-31.4,20.1-49.2,23.5c-3.4,0.7-6.9,0.9-10.3,0.2c-1.3-0.3-2.5-0.7-3.7-1.3
	c-0.7-0.3-3.5-2.9-4.1-2.8c-0.8,0-2.7,2.3-3.7,2.6c-1.3,0.5-2.6,0.5-4,0.2c-4.9-1-8.2-3.6-12.3,1.1c-2.8,3.2-4.8,3.8-9.1,3.8
	c-3.3,0-6.4-0.6-9.6,0.3c-2.2,0.6-4.3,1.7-6.1,2.9C7.2,39.1,3.7,43.1,0,47h395.8c-3.3-2.3-6.6-4.8-10.1-7.1c-5-3.3-10-5.5-15.9-3.6
	c-4,1.3-7.3,2.5-11.6,2.3c-0.4,0-0.7-0.3-0.8-0.6c-2.2-6.1-10.1-0.5-14.3,0c-2.8,0.3-3.6-3-5.8-3.8c-2.5-0.9-4.5,0.5-6.9,1
	c-12.6,2.5-26.4-1.5-39.2-1c-6.4,0.3-12.6,1.4-18.2-2.5c-4.1-2.8-8.6-6.4-13.6-7.3c-5.2-1-6,2.8-10.6,3.7c-6,1.2-4.2-5.8-8.9-6.4
	c-4.7-0.5-7.9,4.7-12.5,5.2c-0.5,0.1-1,0.1-1.4-0.1c-2.2-1,0-3.3-0.6-4.6C225,21.7,224.7,21.3,224.4,21z"/>
</svg>
