<?xml version="1.0" encoding="utf-8"?>
<!-- Generator: Adobe Illustrator 19.0.0, SVG Export Plug-In . SVG Version: 6.00 Build 0)  -->
<svg version="1.1" id="Layer_1" xmlns="http://www.w3.org/2000/svg" xmlns:xlink="http://www.w3.org/1999/xlink" x="0px" y="0px"
	 viewBox="0 0 290 288" style="enable-background:new 0 0 290 288;" xml:space="preserve">
<style type="text/css">
	.st0{fill:#90BF35;}
	.st1{display:none;fill:#61B352;}
</style>
<g id="XMLID_5_">
	<path id="XMLID_30_" class="st0" d="M206.2,185c0.4-0.8,0.6-1.6,0.6-2.6c0-0.4-0.3-0.6-0.7-0.7c-1.7-0.2-3.3-1.7-4.7-2.6
		c-1.2-0.8-2.4-1.6-3.6-2.4c0.4-0.3,0.7-0.8,0.8-1.3c0.4-1.4-0.4-2.7-1-3.9c-1.4-2.7-3-5.3-4.9-7.7c-0.3-0.3-0.9-0.2-1.1,0.1
		c-0.9,1.6-1.8,3.1-2.6,4.7c-0.4,0.8-0.9,1.6-1.3,2.3c-0.3,0.4-0.3,0.7-0.8,0.4c-0.3-0.2-0.5-0.6-0.7-0.9c-1.8-2.6-3.7-5.6-2.8-8.9
		c0.1-0.5-0.3-0.9-0.8-0.8c-1.7,0.3-2.8-1.5-3.6-2.7c-0.7-1-1.5-2.5-2.9-2.7c-1.3-0.1-2.1,1.2-3.3,1.4c-1.3,0.2-2.6-0.3-3.4-1.4
		c-0.4-0.5-1-0.1-1.1,0.4c-0.2,0-0.4,0.2-0.5,0.5c-0.2,1.7-0.2,3.3,0,5c-0.3,0.1-0.7,0.3-0.9,0.6c-0.2,0.2-0.2,0.5-0.1,0.8
		c0.5,0.9,2.3,0.9,2,2.1c-0.3,1.2-1.6,1.9-2.2,2.9c-1.7,2.6,1.5,4.2,2.9,6c1.5,2,2.1,5.6-0.7,6.9c-1,0.5-2.2,0.3-3.1,0.9
		c-1,0.6-1.1,1.7-0.7,2.7c0.3,0.7,0.8,1.2,1,2c0.2,0.7,0.3,1.3,0.3,2c0,1.3-0.4,2.6-1.2,3.6c-0.5-0.5-1-0.9-1.6-1.2
		c-1-0.4-2.4-0.3-3.1-1.1c-1.6-1.8,0-4.8-0.2-6.9c-0.1-0.9-0.4-1.8-1.1-2.3c-1-0.7-2.2-0.1-3.3-0.6c-1.3-0.6-2.5-1.5-3.7-2.2
		l-3.7-2.2c-1-0.6-2.3-1.7-3.5-1.4c-0.5,0.1-0.8,0.5-1.2,0.9c-0.5,0.4-1.1,0.4-1.6,0.1c-0.2-2.2-0.8-4.3-1.8-6.2
		c-0.2-0.4-0.8-0.4-1.1-0.1c-0.4,0.3-0.8,0.5-1.3,0.6c0.3-2,0.7-4,1.2-5.9c0.3-1.1,0.5-2.1,0.8-3.2c0.3-0.9,0.5-2,1-2.8
		c0.5-0.9,1.3-0.7,2.2-0.9c0.7-0.1,1.3-0.6,1.5-1.3c0.4-1.2-0.2-2.1-1.1-2.9c3-1.1,5.4-3.5,6.6-6.5c0.3-0.8,0.6-1.7,0.7-2.6
		c0.1-0.5,0-1.1,0.3-1.5c0.2-0.3,0.7-0.4,1-0.6c0.7-0.3,1.5-0.6,1.9-1.2c0.3-0.4,0.4-0.9,0.5-1.4c0-0.1,0.2-0.9,0.5-1
		c0.1,2.1,2.6,3.1,4.4,2.1c2.2-1.2,3.2-4.3,2.1-6.6c-0.4-0.9-1.8-2.4-1.1-3.4c0.6-0.9,1.6-1.4,1.3-2.6c-0.3-1.1-1.3-1.8-2.3-2.3
		c-1.4-0.7-2.9-1.4-4.3-2.1c-0.3-0.2-0.7-0.1-0.9,0.2c-1.1,1.8,0.2,3.5,0.2,5.3c0,1.1-0.8,2.2-1.3,3.1c-0.5,1-1.1,2-1.6,2.9
		c-1.2-0.7-0.9-3-0.9-4.1c-0.1-1.6-0.5-3.4-2.2-3.8c-0.3-0.1-0.6,0.1-0.8,0.3l-1.3,1.9c-0.3-1.8-1.3-3.5-2.8-4.7
		c1-1.3-0.2-3.6-0.8-4.9c-1.2-2.6-2.7-5.1-4.5-7.4c-0.2-0.3-0.6-0.4-0.9-0.2c-2.7,1.5-3,5-3.1,7.8c0,1.6,0.1,3.3,1.3,4.5
		c0.9,0.9,2.1,1.4,3.4,1.6c-0.4,1.2,0.4,2.8-0.1,4.1c-0.2,0.5-0.7,0.9-1.1,1.3c-0.3,0.4-0.6,0.9-0.6,1.4c-0.1,0.6,0.1,1.3,0.1,1.9
		c0,0.4,0.1,0.7-0.2,1c0,0.1-0.1,0.1-0.1,0.1c0.5-2.7-2.1-5.4-4.8-5c-0.6,0.1-0.6,1-0.2,1.2c-0.3-0.2-0.2,0-0.5,0.2
		c-0.2,0.1-0.4,0.2-0.6,0.2c-0.5,0.1-1,0.3-1.5,0.4c-1.1,0.3-2.1,0.5-3.2,0.5c-1.1,0.1-2.1,0-3.1-0.4c-1-0.4-1.9-1.1-2.8-1.5
		c-2.6-1.1-5.5,0.5-6.4,2.9c-1.1-0.8-2.6-1-3.9-0.9c-2.2,0.2-5.2,1.8-7.2,0.4c-0.7-0.5-1.4-1.4-1.1-2.3c0.2-0.5,0.7-0.8,1-1.2
		c0.3-0.3,0.4-0.7,0.4-1.2c0-0.9-0.6-1.7-1.4-2.1c-1-0.5-2.1-0.4-3.1-0.2c-2.8,0.4-5.5-0.1-7.8-1.7c-1-2-3.5-2.6-5.3-1.5
		c-0.4,0.2-0.8,0.6-1.2,1c-0.5,0.5-0.6,1.2-1.4,0.7c-0.5-0.4-1-1.1-1.4-1.6c-0.5-0.6-1-1.3-1.4-1.9c-0.3-0.5-1-0.4-1.2,0.2
		c-0.1,0.2-1.1-0.5-1.1-0.6c-0.4-0.2-0.8-0.3-1.2-0.4c-1-0.1-1.9,0.3-2.7,0.8c-0.9,0.5-1.6,1.2-2.5,1.6c-0.6,0.3-1.1,0.4-1.7,0.3
		c-0.4,0-0.8-0.1-1.2,0.1c-0.7,0.3-0.8,0.9-1.3,1.5c-0.6,0.7-1.7,0.2-2.5,0.4c-0.6,0.1-1.3,0.6-1.5,1.3c-0.1,0.4,0.2,0.7,0.5,1.1
		c0.1,0.2,0.3,0.4,0.4,0.6c-2.3-0.2-4.3-1.1-6.2-2.5c-1-0.7-2-1.5-3.2-1.8c-1.3-0.4-2.7-0.2-4-0.9c-1.1-0.6-2-1.4-3.1-2.1
		c-1.1-0.6-2.4-1.1-3.7-1.3c-1.3-0.2-2.6-0.2-4-0.1c-1.2,0.1-3,0.1-3.3-1.5c-0.1-0.3-0.4-0.5-0.7-0.5c-2.6,0-5.2-0.2-7.7-0.6
		c0-0.6,0-1.2-0.4-1.7c-0.5-0.8-1.5-0.8-2.3-0.4c-1.1,0.6-2,1.7-2.9,2.5c-0.9,0.8-1.9,2.1-3.2,2.3c-2.2,0.3-3.4,2-4.2,3.9
		c-0.5,1.1-0.8,2.4-1.6,3.4c-0.7,0.8-1.8,1.5-2.9,1c-0.2-0.1-0.4-0.1-0.6,0c-0.4-0.2-1.1,0.1-1,0.8c0.1,0.5-0.2,1-0.7,1.2
		c-0.5,0.3-0.4,0.9,0,1.2c1.4,1,2.5,2.2,3.4,3.6c0.7,1.1,1.2,2.8,2.7,2.9c0.8,0.1,1.5-0.4,2.1,0.3c0.4,0.5,0.9,1.6,0.7,2.2
		c-0.5,1.5-4.2,0.9-3.6-1c0.2-0.6-0.5-1.1-1-0.8c-2.4,1.5-4.8,3-7.2,4.5c-0.3,0.2-0.4,0.6-0.2,0.9c0.2,0.4,0.5,0.6,1,0.8
		c0.4,0.2,0.9,0.1,1.3,0.4c0.5,0.3,0,1.1,0.1,1.6c0,0.5,0.3,0.9,0.6,1.2c0.7,0.7,1.9,0.9,2.9,0.8c1-0.1,2.5-0.5,3,0.6
		c0.2,0.4,1,0.4,1.2,0c0.5-1,1.4-1.6,2.5-1.6c-0.1,0.2-0.2,0.4-0.4,0.6c-0.3,0.4,0,0.9,0.4,1c0.7,0.2,0.7,1.3,0.4,1.8
		c-0.4,0.8-1.5,1.1-2.3,1.1c-0.8,0.1-1.8-0.1-2.6,0.2c-0.9,0.3-1.3,1.2-1.8,1.9c-0.6,1-1.3,1.9-1.9,2.9c-0.5,0.7-1.2,1.6-1.1,2.5
		c0,0.8,0.5,1.3,1.1,1.7c0.3,0.2,0.6,0.3,0.9,0.5c0.2,0.1,0.2,0.2,0.3,0.4c0.1,0.1-0.1,0.3,0.1,0.3c-0.5,0-0.9,0.5-0.6,1
		c0.8,1.3,1.9,2.9,3.5,3.3c0.4,0.1,0.7,0.1,1.1,0.1c0.4-0.1,0.9-0.4,1.1,0.1c0.2,0.4,0.1,1.1,0.1,1.6c0,0.6-0.1,1.2-0.1,1.8
		c0,0.2,0.1,0.5,0.3,0.6c0.9,0.5,2,0.5,2.9-0.2c0.3-0.2,0.7-1,1.1-1c0.5-0.1,0.7,0.9,0.8,1.2c0.1,0.5,0.6,0.6,1,0.4
		c1-0.4,2.1-0.9,3.1-1.3c-0.5,0.4-1.1,0.8-1.3,1.1c-0.6,1,0.1,2.3-0.7,3.2c-0.9,0.9-1.9,1.8-2.9,2.6c-1.1,1-2.1,1.9-3.2,2.9
		c-0.5,0.5,0,1.3,0.7,1.1c2.9-0.9,5.6-2.3,7.9-4.2c0.5-0.4,1-0.9,1.3-1.4c0.4-0.7,0.5-1.3,1.2-1.8c1-0.8,2.2-1,3.1-2
		c0.7-0.8,1.1-1.9,0.7-2.9c-0.1-0.2-0.4-0.5-0.5-0.7c-0.1-0.3,0.4-0.8,0.5-1.1c0.4-0.8,0.9-1.5,1.3-2.3c0.4-0.8,0.9-1.5,1.3-2.3
		c0.4-0.7,0.7-1.3,1.6-1.4c0.6-0.1,1.3,0,1.9-0.2c0,0.3,0.1,0.5,0.1,0.8c-1.8,0.9-3.1,2.4-3.8,4.2c-0.1,0.3,0.1,0.6,0.3,0.8
		c0.5,0.3,0.6,1.1,0.1,1.5c-0.4,0.3-0.5,1.1,0.2,1.2c1.8,0.5,3-1,4-2.2c0.3-0.3,0.6-0.7,0.9-0.9c0.4-0.2,0.8-0.3,1.2-0.4
		c0.7-0.2,1.2-0.8,1.2-1.6c0-0.4-0.1-0.7-0.2-1.1c0-0.2-0.1-0.4-0.1-0.6l0-0.2c0.1-0.2,0.1-0.2,0.1-0.1c0,0,0.4,0.7,0.5,0.9
		c0.3,0.2,0.5,0.4,0.9,0.4c0.8,0.2,1.6-0.2,2.4-0.1c0.9,0.2,1.5,1,2,1.6c0,0.2,0.1,0.3,0.3,0.4c3.2,1.4,7,0,9.7,2.4
		c2.7,2.4,5.1,5.2,6.6,8.4c0.6,1.4,1.4,2.8,2.6,3.8c0.6,0.4,1.2,0.7,1.9,0.8c0.6,0.1,1.8-0.3,2.2,0.2c0.4,0.5,0.4,1.2,0.9,1.6
		c0.7,0.4,1.7,0.1,2.1,0.9c0.3,0.7,0.2,1.5,0.1,2.2c-0.1,0.9,0,1.7,0.5,2.5c0.8,1.3,2.2,2.2,3,3.6c0.4,0.7,0.7,1.5,0.9,2.3
		c0.2,0.8,0.2,1.6,0.7,2.3c0.9,1.1,2.7,0.9,4,1.3c1.1,0.4,2.7,1.6,1.8,3c-0.2,0.3-0.5,0.3-0.7,0.5c-0.2,0.2-0.2,0.5-0.3,0.8
		c-0.1,0.9,0,1.8,0.2,2.7c0.5,2,0.7,3.9,0.6,6c-0.2,2-0.5,4-0.8,5.9c-0.1,0.9-0.3,1.8-0.4,2.7c-0.1,0.9-0.4,1.8-0.2,2.7
		c0.3,1.7,2.2,2.2,2.7,3.7c0.3,0.8,0.3,1.6,0.6,2.3c0.3,0.8,0.9,1.3,1.6,1.8c1.3,1.2,1,3.1,1.9,4.5c0.4,0.6,0.9,1,1.6,1.2
		c0.9,0.2,1.8-0.1,2.6-0.1c0.9,1.1,1.8,2.2,2.8,3.3c0.8,0.9,2.2,2.1,2.2,3.4c0,1.2-0.1,2.1,0.6,3.2c0.5,0.7,1.9,2.1,1,3
		c-0.4,0.4-0.2,1,0.3,1.1c2.3,0.7,4.2,2.5,5,4.7c0.4,1.1,0.7,2.4,1.5,3.3c0.7,0.8,1.7,1.2,2.8,1c0.4-0.1,0.7-0.6,0.4-1
		c-2.2-2.9-4.3-5.9-6.5-8.8c-1-1.3-2.1-2.6-2.8-4c-0.6-1-0.9-2.9,0.3-3.7c2.1,1.7,3.2,4.3,4.4,6.7c1.5,2.7,3.6,4.9,5.7,7.1
		c1.1,1.1,2.3,2.3,3.1,3.6c0.5,0.8,0.3,1.6,0.2,2.5c0,0.7,0.1,1.3,0.3,2c1,2.6,3.8,4.2,6,5.6c2.7,1.7,5.6,3.3,8.7,4
		c1.5,0.3,3,0.4,4.5,0.2c1.6-0.2,3.2-0.6,4.7,0.2c2,1.1,3.3,3.2,5.5,4c0.5,0.2,1,0.2,1.5,0.2c0.4,0,0.8-0.1,1.2,0
		c0.5,0.1,0.8,0.5,1.2,0.8c1.4,1.3,2.7,2.5,4.1,3.8c1.3,1.2,2.6,2.7,4.2,3.7c0.7,0.4,1.4,0.6,2.1,0.7c0.4,0,0.8,0.1,1.2,0.3
		c0.3,0.2,0.5,0.6,0.7,0.9c0.8,1.1,2.4,1.3,2.8-0.2c0.2-0.8,0.5-1.4,1.4-1.6c0.9-0.2,1.7,0.4,2,1.2c0.2,0.7,1.4,0.6,1.3-0.2
		c-0.1-2.5-3.1-2.8-5-2.4c-0.8,0.2-1.8,0.4-2.6,0.2c-0.7-0.2-1.2-0.7-1.6-1.3c-0.7-1.1-1.3-2.6-1.6-3.9c-0.2-0.9-0.2-1.7,0.1-2.5
		c0.2-0.6,0.5-1.2,0.4-1.9c-0.1-1.3-1.2-2.1-2.3-2.5c-2.5-1-5.2-0.3-7.8,0.1c0.5-1.2,0.9-2.4,1.4-3.6c0.6-1.6,1.2-3.2,1.8-4.8
		c0.4-1.3,0-2.4-1.4-2.7c-1.4-0.3-3-0.6-4.4,0.1c-1.1,0.5-1.9,1.5-2,2.8c0,0.7,0.2,1.5-0.5,1.9c-0.6,0.3-1.5,0.4-2.2,0.5
		c-1.6,0.3-3.3,0.3-4.6-0.7c-1.1-0.8-1.7-2-2.2-3.3c-0.5-1.3-0.9-2.8-1.2-4.2c-0.2-1.5-0.2-3.1,0.9-4.2c0.4-0.4,0.2-1-0.3-1.1
		c-0.8-0.3-0.9-1.4-0.7-2.2c0.3-0.9,1.2-1.6,1.9-2.2c0.8-0.7,1.6-1.3,2.4-2c0.4-0.4,0.9-0.8,1.4-1c0.7-0.3,1.4,0,2,0.2
		c1.8,0.6,3.8,1.1,5.8,0.6c1.6-0.5,3.1-2.5,4.9-1.6c1.2,0.6,2.2,1.8,3.6,1.8c0.4,0,0.7-0.1,1-0.3c0.2-0.1,0.4-0.3,0.6-0.3
		c0.6-0.2,0.7,0.1,1,0.5c0.5,0.8,0.8,1.8,1.1,2.7c0.4,1.6,0.8,3.6,2.2,4.6c1.1,0.9,3,0.7,3-1.1c0-1-0.6-1.9-1-2.8
		c-0.4-1-0.7-2-0.9-3.1c-0.4-2.2-0.3-4.4,1.1-6.2c0.1-0.1,0.1-0.3,0.1-0.4c0.4-0.5,1-0.7,1.5-1c0.5-0.3,1-0.6,1.4-1.1
		c0.4-0.5,0.6-1.1,0.7-1.8c0.1-0.9,0.9-0.4,1.6-0.3c1.3,0.1,1.8-0.9,2.8-1.5c0.6-0.3,1.3-0.3,1.8-0.8c0.2-0.2,0.3-0.4,0.4-0.6
		c0.3-0.2,0.5-0.5,0.3-0.9c-0.6-1.2-1.1-2.4-1.6-3.7c-0.2-0.6-0.5-1.2-0.7-1.8c-0.2-0.5-0.7-1.3-0.1-1.7c0.6-0.3,1.4-0.2,2.1-0.4
		c0.8-0.3,1.2-0.9,1.3-1.8c0.1-0.6-0.1-1.1,0.4-1.5c0.4-0.3,1.1-0.4,1.6-0.6c1.4-0.4,2.7-0.8,4.1-1.2c0.9-0.3,1.3-0.8,1.3-1.8
		c0-1.2,0.2-2.2,0.9-3.2c1.4-1.9,3.7-2.9,5.8-3.7c0.6-0.3,1.4-0.5,2-0.8c-0.4,0.4-0.7,0.9-1.2,1.1c-0.9,0.4-1.5,1-1.1,2.1
		c0.3,0.8,0.9,2,1.9,1.7c0.5-0.2,1.1-0.5,1.5-0.9c0.5-0.5,0.8-1.1,1.3-1.6c0.8-0.7,6.5-2.2,4.5-4c-0.4-0.3-0.8-0.3-1.2-0.2
		c-0.7,0.1-1.5,0.3-2.2,0.1c-0.5-0.2-1-0.6-1.5-0.8c-0.2-0.1-0.5-0.1-0.7-0.1c0-0.1,0-0.2,0-0.4c0.1-0.8,0.5-1.5-0.1-2.2
		c-0.2-0.2-0.9-0.5-0.9-0.8c-0.1-0.6,0.8-1.1,1.2-1.4c1.5-1.2,1.4-3.1-0.3-4c-2-1.1-4-0.2-5.8,1.1c0.5-0.6,1.1-1.2,1.7-1.8
		c2.2-2.1,5-0.4,7.6-0.7c2.5-0.3,4.5-1.9,6.8-2.7c1.1-0.4,2.3-0.5,3.4-1.1c1-0.5,1.7-1.4,2.1-2.4C208.9,188.3,208,186.1,206.2,185z
		 M190.6,212.8c0.1,0,0.2,0,0.2,0C190.8,212.9,190.8,212.9,190.6,212.8C190.7,212.9,190.7,212.8,190.6,212.8z"/>
	<path id="XMLID_29_" class="st0" d="M285.5,27.5c-3.5-2.4-8.2-0.8-9.7,2.9l-2-1.4c-0.4-0.3-0.8,0-1,0.4c-0.5,1.3-1.4,2.4-2.4,3.3
		c1.3-2.8,1.6-5.9,1-8.9c-0.1-0.4-0.6-0.6-1-0.4c-1.8,0.9-3.6,1.9-5.4,2.8c-0.7-1.3-2.3-1.8-3.8-1.8c-1.7,0-3.6,1-5.3,0.8
		c4.8-2.2,9.5-4.3,14.3-6.5c0.5-0.2,0.4-1.1-0.2-1.2c-1.7-0.4-3.2-1.5-4.1-3.1c-0.7-1.2-0.8-2.9-2.1-3.7c-0.7-0.4-1.5-0.3-2.2,0
		c-0.9,0.4-1.7,0.8-2.6,1c-1.6,0.3-3.2,0.3-4.7-0.2c1.6-0.7,3.2-1.3,4.9-1.7c0.6-0.2,0.6-0.9,0.2-1.2c-1.4-1-2.3-2.5-2.7-4.2
		c0-0.2-0.3-0.4-0.5-0.5c-1.3-0.3-2.6-0.5-3.8-0.8c-0.5-0.1-0.8,0.3-0.8,0.7c-2.2,0-4.3,0-6.5,0.1c-1.8,0-3.8-0.2-5.4,0.9
		c-0.5,0.4-0.9,1-1,1.7c0,1,0.7,1.6,0.9,2.5c0.1,0.9-0.5,2-1.4,2.1c-1,0.2-2.1-0.7-2.2-1.7c0-0.4-0.4-0.8-0.9-0.7
		c-3.6,0.9-7.2,1.8-10.8,2.9c-0.4,0.1-0.6,0.6-0.4,1c1,1.7,3,1.8,4.8,1.7c1.2-0.1,3.8-0.3,4.5,1c-1.7,0.2-3.4,0.2-5-0.1
		c-0.5-0.1-0.9,0.3-0.8,0.8c0.7,3.7,0.3,7.6-1.2,11.1c-2.2-3.5-5.8-5.9-9.8-6.6c-0.3-0.1-0.6,0-0.8,0.3c-1.1,1.9-0.6,4.3,1,5.7
		c-0.5,0.4-1.2,0.6-1.8,0.6c0.1-1-0.7-1.9-1.5-2.5c-0.7-0.5-4.1-1.4-3.3-2.8c0.4-0.7-0.5-1.3-1.1-0.8c-2.4,2-5.2,3.5-8.2,4.5
		c-0.3,0.1-0.6,0.5-0.5,0.8c1,2.6,2.4,5.1,4,7.4c-0.4,0.3-1.3-0.3-1.6-0.6c-0.7-0.5-1-1.3-1.6-2c-1-1.2-2.6-2.3-4-1.1
		c-0.2,0.1-0.2,0.5-0.2,0.7c0.4,1.1,1,2.4,0.7,3.7c-0.2,1-1.2,1.8-2.2,1.4c-0.3-0.1-0.8,0.1-0.8,0.5c-0.1,0.8-0.2,1.5-0.4,2.3
		c-0.4-0.1-0.9-0.2-1.3-0.1c-0.4,0.1-0.8,0.6-1.1,0.8c-0.8,0.7-1.6,1.6-2.2,2.5c-1.3,1.8-2.2,3.9-2.7,6.1c-0.1,0.4,0.2,0.9,0.7,0.9
		c1.4-0.1,2.7-0.1,4,0c-0.5,2.1-1,4.2-1.6,6.2c-0.3,1-0.6,2-1.5,2.6c-0.9,0.6-1.9,0.8-2.9,1.1c-3.7,1.4-6.8,3.8-9.2,6.9
		c-0.1,0.2-0.1,0.5,0,0.7c1.3,2.6,2.8,5.5,5.7,6.6c1.9,0.7,4.4,0.4,5.8-1.2c0.3,0.5,0.4,1,0.5,1.6c-1,0.4-2.1,0.8-3.1,1.2
		c-0.9,0.4-2,0.6-2.8,1.3c-0.6,0.5-1,1.3-0.7,2.1c0.2,0.8,1.2,1.4,1.2,2.3c0,0.5-0.3,1-0.4,1.5c-0.1,0.4-0.2,0.8-0.1,1.3
		c0.1,0.8,0.6,1.4,1.3,1.9c1.6,1.1,3.5,0.8,5.2-0.1c1-0.5,2-1.2,3.1-1.6c1-0.4,2.1-0.6,3.1-0.5c2.2,0,4.3,0.9,5.9,2.5
		c1.6,1.6,2.7,3.7,3.7,5.6c1.1,2.2,2.2,4.4,3,6.7c1.8,5,2.7,10.5,0.9,15.7c-0.1,0.3,0.1,0.6,0.3,0.8c0.7,0.3,1.4,0.7,2.1,1
		c0.4,0.2,1.1,0,1-0.6c0-0.3,0.1-0.6,0.4-0.7c1.6,2.4,2.8,5,3.5,7.7c-1.2-0.3-2.3-0.9-3.2-1.8c-0.3-0.2-0.7-0.3-1,0
		c-1.6,1.8,0.6,3.7,1.7,5c1.5,1.8,2,4.2,1.6,6.4c-1.9,0.4-4.7,1.7-3.5,3.9c0.3,0.6,0.9,0.9,1.4,1.3c0.6,0.5,1,1.1,1.1,1.9
		c0.3,1.4,0.2,2.8,0.3,4.2c0.2,1.7,0.8,3.2,1.5,4.7c0.6,1.4,1.3,2.7,2,4.1c1.4,2.8,2.9,5.5,4.7,8c2,2.8,4.4,5.2,7.3,7
		c0.3,0.2,0.6,0.1,0.8-0.1c3.8-3.7,3.7-9.4,4.4-14.3c0.2-1.3,0.4-2.7,0.9-4c0.2-0.6,0.4-1.3,0.7-1.8c0.4-0.8,0.9-1.2,1.7-1.6
		c2.5-1.4,4.7-3.1,6.5-5.3c1.9-2.2,3.3-4.7,4.3-7.4c2.9,1.4,6.2-0.4,8.6-2.1c1.7-1.3,3.2-2.7,4.8-4c1.8-1.5,3.5-3,5.3-4.5
		c0.4-0.3,0.2-1-0.3-1.1c-1.7-0.5-3.3-1.1-4.9-1.9c0.4-1.5,0.7-3.1,0.9-4.6c0.7,0.3,1.4,0.8,1.9,1.4c0.3,0.3,0.5,0.9,0.9,1
		c0.3,0.1,0.8,0,1-0.2c1.6-0.8,1.3-2.9,0.4-4.1c-0.6-0.8-1.5-1.3-2.1-2.1c-0.5-0.7-0.8-1.6-0.9-2.5c-0.2-1.6,0.4-3.2,1.5-4.4
		c1.3,0.9,2.9,1.8,4.5,1c1.4-0.7,2.1-2.3,1.1-3.6c-0.4-0.6-1.1-1-1.4-1.7c-0.3-0.6-0.3-1.3-0.1-1.9c0.3-1.3,1.3-2.5,2.7-2.6
		c0.5,0,0.8-0.5,0.6-1c-0.9-1.9,0.5-4.2,0.6-6.2c0.1-1.1-0.2-2-0.9-2.9c-0.7-0.9-1.8-1.5-2.3-2.5c-0.3-0.5-0.6-1.9,0.3-2.2
		c0.8-0.2,1.8,0.5,2.5,0.7c2,0.6,2.7-1.4,1.7-2.9c-0.6-1-1.8-1.5-2.5-2.4c-0.3-0.4-0.9-2.1-0.1-2.1c0.5,0,0.7-0.4,0.7-0.9
		c-0.2-1.6-1.6-2.9-3.2-3.1c-0.5-2-0.2-4.1,1-5.9c1.1-1.7,3-2.7,2.7-4.9c-0.2-1.2-0.5-2.3-0.6-3.6c0-1.2,0.1-2.4,0.5-3.6
		c0.2-0.6,0.4-1.2,0.7-1.7c0.4-0.7,0.8-0.7,1.6-0.6c0.7,0.1,1.5,0.1,2.1-0.5c1.1-1,1-2.9,1.2-4.3c0.2-1,0.5-1.7,1.2-2.5
		c0.9-1.1,1.9-2.1,2.9-3.1c0.8-0.9,1.7-1.8,2.5-2.7c0.7-0.8,1.7-1.6,2-2.7C288.4,30.4,286.9,28.5,285.5,27.5z"/>
	<g id="XMLID_12_">
		<path id="XMLID_28_" class="st0" d="M197.6,137.3c-1.3-0.6-2.5-1.4-3.3-2.6c-0.8-1.1-1.1-2.5-2.1-3.4c-1-0.9-2.3-1.1-3.4-1.7
			c-1-0.5-1.9-1.1-2.7-1.9c1.1-0.2,2.2-0.7,3-1.6c0.3-0.3,0.2-1-0.3-1.1c-1.2-0.2-2.3-0.7-3.1-1.6c0.4-0.2,0.9-0.5,1.3-0.7
			c0.4-0.2,0.4-0.8,0.1-1.1c-0.5-0.5-0.9-1.1-1.1-1.7c-0.2-0.4-0.8-0.4-1.1-0.1c-0.5,0.4-1.1,0.6-1.7,0.8l1.3-1.3
			c0.3-0.3,0.2-0.8-0.1-1.1c-1-0.6-2-1.2-3-1.8c-0.2-0.1-0.5-0.1-0.7,0c-0.2,0.1-0.5,0.3-0.7,0.4c0-0.1,0.1-0.1,0.1-0.2
			c0.2-0.3,0.3-0.7,0.2-1.1c0-0.8-0.6-1.6-1.2-2.1c-1.1-1-2.8-1.4-4.2-1c-0.5-0.8-0.2-2-0.4-2.8c-0.1-0.4-0.3-0.8-0.7-1.1
			c-0.6-0.4-1.1-0.3-1.8-0.4c-0.5,0-0.5-0.3-0.7-0.7c-0.1-0.2-0.2-0.4-0.4-0.6c-0.5-0.4-1.1-0.5-1.7-0.4c-0.6,0.1-1.1,0.4-1.7,0.7
			c-0.4,0.2-0.7,0.5-1.2,0.6c-0.7,0.2-0.9-0.2-1-0.8c-0.2-0.7-0.2-1.4-0.5-2.2c-0.3-0.7-0.7-1.4-1.2-2c-0.5-0.6-1-1.2-1.5-1.8
			c-0.5-0.6-1-1.2-1.8-1.3c-1.5-0.3-2.9,1.3-3.8,2.3c-0.6,0.6-1.1,1.2-1.7,1.9c-0.5,0.7-1.3,1.4-1.5,2.2c-0.1,0.4-0.1,0.8,0,1.1
			c0.1,0.2,0.6,0.7,0.5,0.9c-0.2,0.7-1,0-1.1-0.4c-0.2-0.5-0.1-1,0.1-1.5c0.3-1,0.9-1.9,1.4-2.9c0.5-1,1.1-2,1.7-3
			c0.2-0.4,0-0.9-0.4-1c-1.4-0.3-2.7-0.4-4.1-0.2c-0.2-0.1-0.4-0.1-0.6,0.1c0,0,0,0,0,0c-0.3,0.1-0.5,0.3-0.5,0.5
			c-2.2,2.5-3.8,5.6-4.6,8.8c-0.4,1.5-0.8,3.4,0.2,4.8c0.6,0.9,1.7,1.2,2.6,1c0.3,0.7,0.6,1.4,0.9,2.1c-0.3-0.1-0.5-0.2-0.8-0.4
			c-0.4-0.2-1,0.1-1,0.6c0.1,1.5,0.3,3.2,1.9,3.8c0.6,0.2,1.3,0.2,1.8-0.1c0.1-0.1,0.2-0.2,0.4-0.3c0.2-0.1,0.1-0.1,0.3-0.1
			c0.2,0.1,0.5,0.6,0.8,0.8c0.7,0.5,1.5,0.6,2.3,0.8c1.1,0.2,2.2,0.4,3.2,0.6c2.1,0.3,4.3,0.4,6.4,0.4c0.5,0,0.8-0.6,0.6-1
			c-0.1-0.3-0.4-1.4,0-1.5c0.4-0.1,1.1,1,1.6,1.2c0.7,0.2,1.5,0,1.8-0.5c0.9,0.5,1,2.7,1.5,3.4c0.4,0.6,0.8,0.9,1.5,1.1
			c0.4,0.2,0.9,0.4,0.9,0.9c0,0.5-0.5,0.7-1,0.7c-0.2,0-0.5,0.1-0.6,0.3c-0.4,0.7,0,1.4,0.8,1.5c0.5,0.1,0.9-0.4,1.4-0.2
			c0.4,0.1,0.9,0.7,1.2,1c1.5,1.5,2.4,3.6,2.6,5.7c0,0.5,0.1,1,0,1.5c-0.1,0.7-0.7,0.8-1.1,1.2c-0.6,0.4-1,1.1-1.2,1.8
			c-0.3,1.1-0.1,2.2,0.5,3.1c-1.3,0.5-2.4,1.1-3.3,2.2c-0.3-0.2-1-1-1.2-1.2c-0.9-0.4-1.6,0.3-1.9,1.1c-0.7,1.9,0.8,4.2,2.9,3.7
			c0.5-0.1,0.9-0.5,1.4-0.7c0.8-0.4,1.4,0,2,0.5c1,0.8,1.9,1.8,2.7,2.7c1.8,1.9,3.8,3.3,6.1,4.5c1.1,0.6,5.2,3.3,5.7,0.7
			c0.1-0.4-0.1-0.7-0.5-0.8c-1.9-0.8-3.3-2.2-4.2-4c1,0.6,2,1.1,3,1.7c1,0.6,2.5,1.4,3.1,0c0.3-0.6,0.4-1.3,0.6-2
			c0.2-0.7,0.5-1.5,0.4-2.3c-0.1-0.6-0.5-1-0.8-1.4c-0.6-0.7-1.3-1.3-1.9-2c-1.1-1.1-2.4-2.2-3.1-3.6c-0.3-0.6-0.4-1.2-0.1-1.9
			c0.3-0.7,0.9-0.9,1.6-0.5c1.3,0.7,2.3,2.2,3.1,3.4c0.6,0.9,1,2.7,2.3,2.5c1.3-0.2,2.5-2.1,3.2-3.2c0.8-1.4,1.4-2.9,1.8-4.5
			C198,137.8,197.9,137.4,197.6,137.3z"/>
		<path id="XMLID_27_" class="st0" d="M164.9,101.8c0.5,0.4,1.3,0.4,1.7,1c0.3,0.4,0.3,1,0.7,1.4c0.7,0.9,2.3,0.9,3.3,0.7
			c0.9-0.2,2.4-0.7,2.5-1.7c0.1-0.6-0.4-1-0.6-1.5c-0.3-0.7-0.4-1.3-0.4-2.1c0-1.2-0.6-2-1.8-2.1c-0.7-0.1-1.4,0.1-2-0.2
			c-0.6-0.2-1-0.4-1.7-0.3c-0.9,0.2-1.4,1-1.7,1.8c0,0,0,0.1,0,0.1c-0.1,0.2-0.1,0.5-0.1,0.7c0,0.1,0,0.1,0,0.2
			c-0.1,0.3-0.3,0.6-0.3,0.9C164.3,101.1,164.5,101.5,164.9,101.8z"/>
		<path id="XMLID_26_" class="st0" d="M126.8,120.9c-0.2,0-0.3,0-0.5,0c0-0.7-0.5-1.3-1.2-1.7c-0.7-0.4-1.5-0.4-2.1-0.9
			c-0.4-0.6-0.7-1.3-1-1.9c0-0.6,0.1-1.1,0.4-1.6c0.4-0.6,0.8-1.2,0.8-2c-0.1-0.7-0.6-1.2-1.2-1.4c0-0.3-0.1-0.6-0.2-1
			c-0.2-0.6-0.6-1-0.9-1.6c0-0.1-0.1-0.3-0.1-0.4c-0.1-0.6,0.4-1.4,0.5-2c0.1-0.7,0.2-1.4,0.2-2.1c0-1.2-0.2-2.8-1-3.8
			c-0.7-0.9-2-1.1-2.9-0.3c-0.2,0.2-0.2,0.4-0.2,0.7c0.1,0.5,0,1-0.2,1.4c-0.1,0-0.2-0.1-0.3-0.1c-0.9-0.3-2.1,0-2.7,0.8
			c-0.3,0.5-0.4,1.1-0.3,1.7c0.1,0.9,0.1,1.9,0.2,2.8c0.1,0.9,0.1,1.7,0.2,2.6c0,0.4,0.4,2.2-0.1,2.3c-0.8,0.1-0.6-1.7-0.7-2.2
			c0-0.8-0.2-1.7-0.4-2.5c-0.2-0.9-0.5-1.7-0.9-2.5c-0.4-0.8-1.1-0.9-2-1.1c-0.5-0.1-1,0.3-0.8,0.8c0.6,2.1-1.5,3.6-3.2,2.9
			c0.5-0.6,0.6-1.6-0.1-2.3c-0.5-0.6-1.1-0.7-1.7-0.7c0.2-0.3,0.5-0.5,0.7-0.8c0.4-0.4,0.1-1.1-0.5-1.2c-0.6,0-1.1-0.2-1.6-0.5
			c-0.3-0.2-0.7-0.1-0.9,0.2c-1.2,0.5-2.2,1.2-3.2,2c-1.2,0.7-2.4,1.4-3.6,2.2c-0.6,0.4-1.2,1-1.2,1.8c0,0.3,0.1,0.6,0.3,0.8
			c-0.3,0.4-0.6,0.9-0.8,1.3c-0.6,1.4-0.2,3.3,1.4,3.8c1.2,0.4,2.7-0.5,3.8-0.2c-0.4,0.4-1.2,0.6-1.5,0.8c-0.5,0.4-0.9,0.9-1,1.5
			c-0.1,0.6,0.3,1.2,0.8,1.4c0.7,0.3,1.5,0,2.1,0.3c0.6,0.4,0.9,0.8,1.7,0.8c0.8,0,1.5-0.4,2.3-0.4c1.3-0.1,2.7,0.3,3.8,0.9
			c-0.9,0.4-1.8,0.6-2.8,0.7c-0.7,0.1-1.4,0-2.1-0.1c0,0-0.1,0-0.1,0c-0.1-0.2-0.3-0.3-0.6-0.3c-1.3,0-3.3,0.3-4,1.5
			c-0.3,0.5-0.3,1.1,0.1,1.5c0.2,0.2,0.4,0.3,0.7,0.4c0.1,0,0.1,0,0.2,0c-0.1,0.1-0.1,0.2-0.1,0.3c-0.1,0.3-0.1,0.8,0.1,1.1
			c0.5,0.9,1.5,0.5,2.3,0.4c0.3,0,0.5-0.1,0.8-0.1c0.5,0,1,0,1.5,0.2c0,0.1,0.1,0.1,0.1,0.2c0.3,0.3,0.6,0.3,0.9,0.5
			c0.5,0.3,0.4,0.9,0.3,1.3c0,0.3,0,0.6,0.3,0.8c0.4,0.3,0.5,0.8,0.3,1.2c-0.2,0.4,0,0.8,0.3,0.9c0.9,0.6,1.9,0.6,2.9,0.1
			c0.7-0.3,1.3-0.7,1.9-0.9c0.7-0.3,1.4-0.5,2.1-0.7c1.8-0.5,3.8-1.3,4.6-3c1.6,1.7,4.1,2.3,6.4,2.7c0.6,0.1,1.2,0.2,1.7-0.3
			c0.5-0.4,0.5-1.1,0.3-1.6c-0.3-0.6-0.8-0.9-1.4-1.1c-0.3-0.2-0.6-0.3-0.7-0.6c0.1,0,0.1-0.1,0.2-0.1c0.7-0.7,1.7-1.1,2.7-0.6
			c0.4,0.2,0.8,0,1-0.4c0.3-0.6,0.4-1.3,0.4-1.9C127.4,121.3,127.1,120.9,126.8,120.9z"/>
		<path id="XMLID_25_" class="st0" d="M94.7,106.1c0.8-0.6,1.7-1.1,2.5-1.7c0.7-0.5,1.5-1,2.2-1.5c0.5-0.4,1.1-0.8,1-1.5
			c-0.1-0.7-0.7-1.3-1-1.8c-0.5-0.7-1-1.3-1.6-1.9c-0.5-0.5-1.3-1.5-2-1.8c-0.6-0.2-1.2,0.2-1.7,0.5c-0.5,0.2-0.6,0-1-0.4
			c-0.3-0.3-0.6-0.5-0.9-0.7c-0.5-0.2-1-0.3-1.5-0.3c-0.4-0.7-1.3-1-2.2-0.9c-1.6,0.3-3.1,0.8-4.7,1.2c-0.4,0.1-0.5,0.4-0.5,0.7
			c-0.2,0.7-0.1,1.4,0.2,2.1c0.2,0.3,0.4,0.6,0.7,0.9c0.4,0.3,0.4,0.3,0.1,0.7c-0.4,0.5-0.6,1-0.5,1.7c0.2,0.6,0.8,1.2,0.8,1.8
			c0,0.4-0.4,0.7-0.7,1c-0.2,0.3-0.4,0.6-0.6,0.9c-0.3,0.6-0.6,1.3-0.8,2c-0.4,1.6-0.7,3.2-1.7,4.5c-0.4,0.5,0.3,1.1,0.8,1
			c0.7-0.1,1.5,0.2,2,0.7c0.4,0.4,0.6,1.1,1,1.5c0.8,1,1.9,0.8,3,0.2c0.6-0.3,0.9-0.5,1.6-0.4c0.6,0.1,1.2-0.2,1.4-0.8
			c0.2-0.7,0-1.4-0.1-2.1c-0.1-0.3-0.1-0.8,0.1-1.1c0.2-0.4,0.7-0.3,1.1-0.3c1.4-0.3,1-1.6,1.4-2.7
			C93.3,106.9,94.1,106.5,94.7,106.1z"/>
		<path id="XMLID_24_" class="st0" d="M143.2,32.3c1.5,1.1,1.6,3.2,2,4.8c0.4,1.7,1,3.3,2.4,4.4c1.3,1,3.1,1.5,4.7,1.2
			c0.4-0.1,0.9-0.2,1.3-0.3c0.3-0.1,0.8-0.4,1.1-0.5c0.6-0.1,0.8,0.6,1.2,1c0.4,0.3,0.8,0.4,1.3,0.5c0.8,0,1.6-0.3,2.3-0.7
			c1-0.5,2-1,2.9-1.6c1.9-1.1,3.7-2.3,5.1-3.9c0.3-0.3,0.5-0.7,0.8-1c0.4-0.4,1.2-0.7,0.5,0.1c-0.6,0.7-1.5,0.9-1.9,1.8
			c-0.2,0.5,0,0.8,0,1.3c0.1,0.7-0.2,0.7-0.8,1c-1,0.5-2,1-3,1.7c-0.9,0.7-1.8,1.4-2.6,2.3c-0.7,0.8-1.6,1.7-1.9,2.7
			c-0.1,0.5-0.1,1,0.1,1.5c-0.6-0.9-1.2-1.8-2.1-2.3c-1.8-1.1-4.9-0.3-4.9,2.1c0,0.3,0.3,0.7,0.7,0.7c0.8-0.1,0.1,2.2,0.1,2.6
			c0,1,0.7,1.6,1.5,1.9c2,0.8,3,2.8,2.3,4.8c-0.1,0.2,0,0.5,0.2,0.7c0.6,0.6,1.4,0.8,2.2,0.8c0.5,0,2.6,0,1.6,1
			c-0.9,1-2.8-0.2-3.9-0.3c-1.1-0.2-2.2,0.1-3.3,0.6c-1.9,0.9-4.3,3-4.4,5.3c0,1.4,1.4,2.9,2.8,2.7c0,0.3,0.1,0.6,0.1,0.9
			c0.1,0.4,0.7,0.6,1,0.4c0.6-0.4,1.3-0.8,1.9-1.2c0,0.1-0.1,0.1-0.1,0.2c-0.2,0.3-0.1,0.8,0.2,0.9c0.5,0.3,1,0.7,1,1.3
			c-0.1,0.8-0.7,0.9-1.3,0.6c-0.8-0.4-1.3-1.2-2.2-1.4c-1.5-0.4-2.9,0.9-2,2.4c0.2,0.3,0.4,0.6,0.6,0.9c0.3,0.4,0.4,0.6-0.1,1
			c-1,0.7-2.1,1.3-3.2,2c-0.7,0.5-1.5,1-1.3,2c0.1,0.5,0.4,1,0.6,1.5c0.2,0.7,0.2,1.3,0,2c-0.1,0.3,0,0.6,0.3,0.8
			c2.2,0.9,4.8,0.3,6.4-1.5c0.7,0.6,1.4,1.1,2.3,1.1c0.8,0,1.5-0.4,1.9-1.1c1.1-0.2,2.2-0.4,3.2-0.7c0.3-0.1,1.6-0.5,1.8-0.2
			c0.3,0.3,0,1-0.1,1.3c-0.1,0.4,0.2,0.9,0.7,0.9c2.1,0,3.4-1.7,4.2-3.4c0.5-0.9,0.9-1.9,0.3-2.9c-0.4-0.6-1-0.9-1.6-1.1
			c-0.4-0.1-1.5-0.4-1.4-0.9c0.1-0.6,1.5-0.9,2-1.1c1.6-0.9,1.7-2.5,1.3-4c1,0,2.1-0.1,2.8-0.8c1.1-1,0.8-2.4,0.8-3.7
			c0-0.9,0.5-1,1.2-1.2c0.6-0.2,1.1-0.6,1.2-1.2c0.2-1.3-0.8-1.9-1.8-2.1c0-0.1,0.1-0.2,0.1-0.2c0.1-0.3,0.1-0.6-0.1-0.8
			c-0.5-0.6-1-1.2-1.5-1.9c-0.2-0.3-1.1-1.6-0.8-1.9c0.2-0.3,1.6,0,1.9,0c0.6,0,1.2-0.1,1.8-0.3c1.7-0.5,3.1-2.1,2.9-3.8
			c0.5-0.1,1.1-0.5,1.5-0.9c1.2-1.1,2.3-2,3.8-2.6c0.5-0.2,0.7-0.7,0.3-1.1c-0.2-0.2-0.4-0.5-0.6-0.8c-0.1-0.4-0.1-0.4,0.3-0.4
			c0.6,0,1.1,0,1.5-0.4c0.4-0.4,0.5-0.9,0.6-1.4c0.1-0.8,0.2-1.4,0.8-2.1c2.3-3.1,5-5.9,7.5-8.9c0.3-0.3,0.3-0.8-0.1-1.1
			c-0.5-0.3-1-0.4-1.5-0.3c0.1,0,0.1-0.1,0.2-0.1c0.7-0.5,1.4-1,2-1.5c1.3-1,2.6-2.1,3.7-3.2c1.8-1.9,3.1-4.9,1.1-7.1
			c-0.1-0.2-0.5-0.3-0.7-0.2c-0.2,0.1-0.4,0.2-0.6,0.3c-0.3-2.6-1.6-5-3.6-6.6c-0.3-0.3-0.8-0.3-1.1,0.1c-0.8,1.5-2.1,2.4-3.6,3
			c0.9-0.6,1.5-1.4,1.3-2.7c-0.1-0.5-0.5-0.8-1-0.6c-1.4,0.7-2.9,0.3-3.9-0.9c-0.5-0.5-1-1-1.7-1.3c-0.8-0.2-1.6-0.3-2.4-0.4
			c-1-0.1-3.2-0.8-3.8,0.4c-0.3,0.6,0,1.2,0.4,1.7c0.4,0.6,0.7,1.2,1.1,1.8c-0.3,0-0.6-0.1-0.9-0.1c-0.4,0-0.7,0.1-1,0.2
			c-0.1,0.1-0.2,0.1-0.3,0.2c-1.3-1.2-2.3-2.6-3.3-4.1c-0.2-0.3-0.6-0.5-0.9-0.2c-0.6,0.4-1.4,0.3-2.1,0.5c-0.5,0.2-1.1,0.6-1.2,1.2
			c-0.1,0.5,0.1,1.1,0.5,1.4c0.4,0.4,1.4,0.9,0.6,1.5c-0.1-0.3-0.3-0.6-0.6-0.9c-0.9-1-2.4-1.3-3.7-1c-1.5,0.3-2.6,1.5-3.3,2.8
			c-0.4,0.7-0.6,1.5-0.8,2.3c-0.2,0.6-0.6,2.4-1.6,1.7c-0.4-0.3-1,0.1-1,0.6c0,1,0.7,1.8,1.6,2.2c0.4,0.2,3.1,0.9,2.1,1.7
			c-0.4,0.4-0.1,1,0.3,1.1c0.1,0,0.2,0.1,0.4,0.2c-0.7-0.1-1.4-0.3-2.1-0.6c-1.2-0.6-1.9-1.6-2.7-2.6c-1.4-1.6-4.1-2.6-5.4-0.4
			c-0.5,0.8-0.6,1.7-0.9,2.5c-0.6,1.4-1.8,0.8-3,1c-1.6,0.2-2.4,2-1.8,3.4c-1.4,0.5-2.6,1.2-3.8,2.2
			C142.7,31.5,142.9,32.1,143.2,32.3z"/>
		<path id="XMLID_23_" class="st0" d="M136.3,48.1c0.4,0.1,1.1,0.1,1.1,0.7c0,0.8-1,0.4-1.4,0.4c-0.7,0.1-1.2,0.7-1.4,1.4
			c-0.2,1.1,0.5,1.8,1,2.7c0.1,0.2,0.2,0.4,0.3,0.6c0.1,0.4-0.1,0.5-0.3,0.8c-0.2,0.3-0.2,0.7,0,1c0.5,0.8,1.6,1,2.5,0.9
			c0.4,0,0.8-0.1,1.2-0.2c0.3-0.1,1-0.5,1.2-0.4c0.1,0,0.3,0.4,0.4,0.5c0.2,0.1,0.3,0.2,0.5,0.3c0.5,0.2,1,0,1.5-0.2
			c0.2-0.1,0.8-0.4,1-0.2c-0.1-0.1-1.4,0.4-1.6,0.5c-0.9,0.3-1.8,0.8-2.1,1.8c-0.1,0.3-0.1,0.7-0.1,1c0.1,0.5,0.5,0.9-0.2,1.2
			c-0.7,0.3-1.4,0.8-1.2,1.6c0.2,0.7,0.9,1,1.5,1.4c0.8,0.6,1,1.7,1.9,2.3c1.7,1.1,3.7-0.2,4.5-1.7c0.6-1,0.8-2.2,1.4-3.2
			c0.7-1.1,1.6-1.2,2.7-1.7c0.7-0.3,1.3-1,1.2-1.8c-0.1-1.1-1.6-2-0.6-3.1c0.2-0.2,0.3-0.4,0.2-0.7c-0.5-1.3-0.9-2.6-1.1-4
			c-0.2-1.1-0.2-2.1-1.2-2.8c-0.5-0.3-0.7-0.5-0.7-1.1c0-0.5,0-1-0.2-1.5c-0.4-0.8-1.4-1.2-2.1-1.6c-2-1.3-2.5-3.7-3-5.8
			c-0.5-1.8-2-4.1-4.2-3.2c-0.5,0.2-0.5,0.8-0.3,1.1c0,0.2,0.1,0.5,0.3,0.6c0.2,0.2,0.4,0.3,0.7,0.3c0.1,0,0.6,0.1,0.7,0.1
			c-0.2,0-0.5,0.7-0.6,0.8c-0.2,0.3-0.3,0.6-0.5,0.8c-0.7-0.2-1.5-0.3-2.1,0.3c-0.5,0.5-0.7,1.4-0.2,1.9l0.1,0.1
			c-0.1,0.1-0.2,0.1-0.2,0.2c-0.3,0.3-0.4,0.7-0.4,1.1c0,0.4,0.2,0.8,0.4,1.1c0.2,0.2,0.6,0.6,0.9,1c-0.4,0-0.7-0.2-1.1-0.5
			c-0.2-0.2-0.4-0.3-0.7-0.2c-0.9,0.3-1.1,1.1-0.9,2c0.1,0.4,0.5,0.9,0.5,1.3c0,0.3,0.1,0.1-0.2,0.2c-0.3,0.1-0.5,0.1-0.7,0.2
			c-0.3,0.2-0.4,0.6-0.2,0.9C134.9,47.8,135.5,47.9,136.3,48.1z"/>
		<path id="XMLID_22_" class="st0" d="M148.4,95.4l6.7-0.1c0.8,0,1.8,0.1,2.5-0.3c0.3-0.2,0.6-0.5,0.8-0.7c0,0.2,0.1,0.4,0.2,0.6
			c0.3,0.5,0.8,0.7,1.4,0.8c1.5,0.1,3.2-0.7,4.4-1.3c0.4-0.2,0.4-0.8,0.1-1.1c0.1,0.1,0.8-0.2,0.9-0.2c0.3-0.1,0.6-0.2,0.8-0.4
			c0.2-0.2,0.4-0.5,0.3-0.8c-0.2-0.5-0.5-0.7-1.1-0.7c-0.2,0-0.5,0.1-0.7,0.1c0.3,0,0.7-0.4,0.8-0.7c0.7-1,0.5-2.4-0.4-3.2
			c-0.5-0.4-1-0.5-1.6-0.6c-0.9-0.1-1.3-0.6-2-1.1c-0.5-0.4-1.1-0.6-1.7-0.5c-0.8,0.1-1.3,0.7-2.1,0.9c-0.8,0.2-1.6-0.3-2.4,0.1
			c-0.7,0.4-0.8,1.3-1.6,1.6c-1.5,0.5-3.2-1.8-4.5-0.6c-0.2,0.2-0.3,0.4-0.5,0.6c-0.2,0.4-0.3,0.5-0.6,0.1c-0.6-0.7-0.9-1.9-1.3-2.7
			c-0.3-0.7-0.6-1.6-1.2-2.2c-0.3-0.3-0.6-0.4-0.9-0.5c-0.5-0.2-0.7-0.3-0.8-0.8c-0.2-0.7-0.4-1.4-1.1-1.7c-0.7-0.3-1.4,0-2.1,0
			c-0.9,0-0.6-1-0.6-1.7c0-0.7-0.2-1.2-0.8-1.6c-0.3-0.2-0.8-0.1-0.9,0.2c-0.1,0.1-1-0.9-1.1-1c-0.4-0.3-0.8-0.5-1.3-0.5
			c-0.6,0-0.8,0.6-0.6,1c0,0-1.9,0.3-2,0.4c-0.6,0.2-1,0.7-1,1.3c-0.1,1.2,0.8,1.7,1.8,1.9c0,0.2,0.1,0.4,0.3,0.5
			c0.3,0.2,0.6,0.3,0.9,0.4c0,0.3,0.1,0.7,0.4,1c0.3,0.3,0.8,0.5,1.2,0.6c0.9,0.2,1.7,0,2.5-0.4c0.2,0.6,0.6,1,1.1,1.5
			c0.6,0.7,1.7,1.4,1.8,2.4c0.1,0.9-0.9,1.5-1,2.4c-0.1,1.1,0.3,2.2,0.5,3.3c0.2,0.8,0.4,1.6,1.3,1.9c0.3,0.1,0.7,0.1,1,0
			c0.2-0.1,0.3-0.2,0.5-0.3c0.3-0.1,0-0.2,0.4,0.1c0.6,0.4,1.1,0.8,1.9,0.7c0.3,0,0.5,0,0.8-0.1c0,0,0,0,0,0
			C147.6,94.8,147.8,95.4,148.4,95.4z"/>
		<path id="XMLID_21_" class="st0" d="M86.6,83.6c0.1,1.3,1.7,1.9,2.8,1.8c0.3,0,0.6-0.1,0.8-0.3c0.1-0.1,0.2-0.2,0.3-0.2
			c0,0,0,0,0,0.1c0.3,0.5,0.7,0.8,1.3,0.8c1.4,0,1.7-1.3,1.7-2.5c0.6-0.2,1-0.6,1.2-1.2c0.2-0.5,0.1-1,0.3-1.5
			c0.1-0.4,0.4-0.7,0.7-1c0.3,1.2,0.7,2.6,2,2.1c0.1,0,0.2-0.1,0.3-0.2c-0.4,0.7,0.2,1.3,0.9,1.8c0,0-0.1,0-0.1,0
			c-0.4,0.1-0.8,0.3-1,0.6c-0.2,0.3-0.3,0.7-0.3,1c0.1,0.4,0.5,0.7,0.4,1c0,0.2-0.4,0.4-0.5,0.6c-0.2,0.2-0.3,0.4-0.4,0.6
			c-0.3,0.4-0.5,0.9-0.7,1.4c-0.3,0.8-0.6,1.9,0.4,2.4c0.9,0.5,2.2,0.4,3.1,0.5c1.1,0.1,2,0.2,2.8-0.5c0.5-0.4,0.7-0.7,1.5-0.4
			c0.4,0.1,0.8,0.4,1.2,0.5c-1.7,0.6-3.3,1.5-2.2,3.5c0.6,1,1.7,1.4,2.8,1.3c0.7-0.1,1.4-0.4,2-0.8c0.6-0.4,1.1-0.9,1.8-1.1
			c1.4-0.3,2.7,0.1,4.1-0.6c0.5-0.3,0.9-0.6,1.4-0.9c0.7-0.4,1.2-0.4,2-0.6c1.1-0.3,1.4-1.5,1.3-2.5c-0.1-1.7-0.2-3.4-0.3-5.2
			c0-0.4-0.3-0.7-0.7-0.7c-0.9,0-1.7,0.2-2.5,0.6c-0.9-1.8-1.2-3.8-0.9-5.7c0.1-0.5-0.3-0.9-0.8-0.8c-1.3,0.3-4.5,1.5-3.4,3.3
			c0.1,0.2,0.6,0.7,0.6,0.7c0,0.1-0.3,0.3-0.4,0.4c-0.1,0.2-0.2,0.4-0.2,0.6c-0.2,1,0.6,1.7,0.9,2.6c0,0.1,0.1,0.5,0,0.6
			c-0.2,0.1-0.6-0.3-0.7-0.4c-0.4-0.4-0.8-0.8-1-1.3c-0.4-0.7-0.5-1.7-1.5-1.8c-0.5,0-0.8,0.2-1.3,0.1c-0.4-0.1-0.8-0.4-1.2-0.6
			c-0.4-0.2-0.8-0.4-1.2-0.4c-0.2,0-1.2,0.1-1.4,0c0.1-0.3,0-0.7-0.5-0.7c-0.8-0.1-2-0.2-2.9,0.2c0.7-0.7,1.3-1.7,1.6-2.4
			c0.1-0.2,0.1-0.6-0.1-0.8c-0.3-0.3-0.6-0.5-0.9-0.7c0.5-0.8,0.3-2.1,0.9-2.9c0.2-0.3,0.1-0.8-0.2-0.9c-0.7-0.3-1.4-0.7-2.1-1.2
			c-0.5-0.3-0.9,0-1,0.5c0,0.1-0.1,0.1-0.1,0.2c-0.1,0.3-0.1,0.5-0.1,0.7c-0.4,0.1-0.8,0.1-1.2,0.1c-0.5-0.1-0.9-0.2-1.3,0.1
			c-0.9,0.6-1.6,1.8-2.1,2.7c-0.9,1.3-2.4,5.4-4.6,4.3c-0.3-0.1-0.6-0.1-0.8,0.1c-0.4,0.4-0.5,0.9-0.4,1.4c0.1,0.3,0.2,0.6,0.2,0.9
			C86.8,83.1,86.6,83.2,86.6,83.6z"/>
		<path id="XMLID_20_" class="st0" d="M104.6,72.4c0.3,0.2,0.8,0.4,1.1,0.6c-0.1,0.1-0.1,0.3-0.1,0.5c0,0.4,0.3,0.6,0.6,0.8
			c0.7,0.3,1.7-0.1,2.4-0.4c0.8-0.3,1.9-0.9,2.3-1.7c0.4-0.7-0.1-1.4-0.8-1.6c-0.1,0-0.5-0.1-0.6-0.2c-0.1-0.2,0.3-0.3,0.5-0.3
			c0.4-0.2,0.7-0.3,0.9-0.7c0.5-0.7,0.2-1.5-0.4-2c-1.5-1.2-4.2,0.3-5.4,1.2c-0.1,0.1-0.1,0.1-0.2,0.2c-0.2,0.1-0.3,0.3-0.3,0.5
			c0,0.4-0.4,0.7-0.6,1c-0.2,0.3-0.2,0.7-0.2,1.1C104,71.8,104.3,72.1,104.6,72.4z"/>
		<path id="XMLID_19_" class="st0" d="M106.2,66.2c0.4-0.1,0.3-0.3,0.6,0.1c0.2,0.3,0.5,0.5,0.9,0.5c0.9,0.2,1.6-0.7,2.5-0.7
			c0.7,0,1.7,0.2,1.9-0.7c0.2-0.6,0-1.6-0.3-2.1c-0.4-0.8-1.1-0.9-1.7-1.4c-0.6-0.5-1.3-0.7-2.1-0.4c-0.3,0.1-0.5,0.3-0.8,0.6
			c-0.3,0.1-0.6,0.1-0.9,0.2c-0.4,0.1-0.7,0.1-1,0.4c-0.4,0.4-0.4,0.9-0.4,1.4c-0.3,0.3-0.6,0.5-0.9,0.8c-0.3,0.2-0.2,0.7,0,1
			C104.7,66.2,105.5,66.5,106.2,66.2z"/>
		<path id="XMLID_18_" class="st0" d="M119.1,59.8c-0.3,0.3-0.4,0.7-0.1,1.1c0.7,0.7,1.5,0.2,2.2-0.2c0.5-0.3,0.1-0.1,0.2,0.1
			c0.1,0.2,0.2,0.3,0.4,0.4c0.1,0.1,0.5,0.2,0.8,0.4c-0.4,0.2-0.8,0.6-1,1c-0.2,0.3-0.2,0.7-0.7,0.8c-0.5,0.1-1.1-0.4-1.5-0.7
			c-0.5-0.3-1,0.1-1,0.6c-0.4,3,3,4.8,5.3,3.2c0,0.3-0.2,0.8-0.4,1c-0.3,0.5,0.2,1.2,0.8,1c0.6-0.2,1.3-0.5,1.9-0.3
			c0.6,0.2,1,0.9,1.5,1.3c0.6,0.5,1.5,1.3,2.3,0.7c0.8-0.6,0.7-1.9,0.4-2.7c-0.4-1.1-1.6-2.1-1-3.3c0.3-0.8,0.5-1.7-0.3-2.3
			c-0.4-0.3-0.9-0.3-1.2-0.6c-0.4-0.3-0.5-1-0.7-1.4c-0.5-1.3-1.9-2-3.2-1.6c-0.5-0.4-0.6-0.9-0.8-1.5c-0.2-0.4-0.6-0.6-1-0.8
			c-0.9-0.3-1.8-0.3-2.6,0.1c-0.5-0.1-1,0.4-0.8,1c-0.1-0.2-0.7,0.8-0.7,0.9c-0.1,0.4,0,0.8,0.2,1.2
			C118.3,59.5,118.6,59.7,119.1,59.8z"/>
		<path id="XMLID_17_" class="st0" d="M132,66.4c0.3,0.4,0.1,0.9,0.3,1.3c0.2,0.3,0.5,0.4,0.8,0.5c0,0-0.1,0.1-0.1,0.1
			c-0.2,0.3-0.3,0.7,0,1c0.6,0.6,1.7,1.3,2.5,0.8c0.5-0.3,0.9-0.8,1.4-1.2c0.6-0.5,1.2-0.9,1.8-1.3c0.5-0.3,0.4-0.9,0-1.2
			c-0.4-0.3-0.9-0.6-1-1.1c-0.1-0.4,0-0.7-0.2-1c-0.4-0.7-1.2-1.1-1.9-1.3c-0.2-0.1-0.5-0.1-0.6-0.3c-0.2-0.2-0.1-0.3-0.1-0.6
			c0-0.3-0.1-0.6-0.3-0.8c-0.6-0.6-2-0.5-2.7-0.5c-0.5-0.1-0.7,0.4-0.6,0.8c-0.1,0.5,0,0.9,0.2,1.5c0.1,0.2,0.2,0.5,0.2,0.7
			c0,0.3-0.2,0.3-0.4,0.6C130.4,65.3,131.5,65.8,132,66.4z"/>
		<path id="XMLID_16_" class="st0" d="M133.1,86.5c0.2-0.7,0.1-1.3-0.2-1.9c-0.4-0.7-1-1.3-0.8-2.2c0.2-0.7,0.3-1.4-0.1-2
			c-0.4-0.6-1-1.1-1.7-1.3c-1.1-0.3-3.8-0.2-4.1,1.3c-0.1,0.6,0.3,1.1,0.7,1.4c0.2,0.2,0.5,0.4,0.6,0.7c0.1,0.6-0.6,0.8-1,0.5
			c-0.3-0.3-0.2-0.7-0.4-1.1c-0.1-0.3-0.4-0.5-0.7-0.6c-0.3-0.1-0.7,0.1-1,0c0,0,0,0-0.1,0c0,0,0-0.1-0.1-0.1
			c-0.1-0.1-0.1-0.3-0.2-0.5c-0.4-0.6-1.2-0.5-1.8-1c-0.3-0.3-0.4-0.7-0.9-0.8c-0.3-0.1-0.7,0-0.9,0.3c-0.2,0.3-0.2,0.6,0,0.9
			c-0.5,1,0,2.1,0.9,2.6c-0.2,0.3-0.5,0.6-0.5,0.8c-0.1,0.6,0.2,1.1,0.7,1.4c0.5,0.4,1.3,0.4,1.2,1.1c0,0.6-0.3,1.1-0.2,1.7
			c0,0.2,0.3,0.4,0.5,0.5c0.8,0.2,1.5,0,2.3-0.3c0.6-0.3,2.9-1.2,2.6,0.3c-0.1,0.4-0.5,0.8-0.6,1.3c-0.1,0.4-0.2,0.8-0.1,1.2
			c0.2,0.6,0.7,1.1,1.3,1.3c0.8,0.3,1.5,0.1,2.3-0.2c0.6-0.2,1.3-0.5,1.6-1.2c0.3-0.7-0.4-1.4-0.1-2.1
			C132.4,87.7,132.9,87.2,133.1,86.5z"/>
		<path id="XMLID_15_" class="st0" d="M140.3,94.4c0.6-0.2,0.6-0.9,0.2-1.2c-0.8-0.6-0.3-1.3-0.2-2.1c0.1-0.5,0-1-0.3-1.5
			c-0.2-0.5-0.3-1.1-0.6-1.5c-0.4-0.5-1.2-0.8-1.8-1.2c-0.3-0.2-0.6-0.1-0.8,0.1c-0.1,0-0.1,0.1-0.2,0.2l-1.7,1.9
			c-0.5,0.5-1.3,1.2-1.5,1.8c-0.5,1.1,0.9,1.5,1.8,1.7c0.3,0.8,0.7,1.5,1.6,1.7C137.9,94.7,139.2,94.8,140.3,94.4z"/>
		<path id="XMLID_14_" class="st0" d="M129.3,98.7c-0.1,0-0.1,0-0.2,0c-0.8,0.3-2.4,0.4-2.8,1.3c-0.2,0.4-0.1,0.9,0.2,1.2
			c0,0-0.1,0-0.1,0c-0.5-0.2-1.1,0.5-0.8,1c0.5,0.8,1.3,1.3,2.2,1.4c-0.3,0.5-0.6,0.9-0.6,1.4c0,0.3,0,0.6,0.2,0.9
			c-0.3,0.2-0.7,0.2-0.9-0.3c-0.2-0.3-0.3-0.7-0.5-1c-0.4-0.6-1.1-1-1.8-0.8c-0.7,0.2-1,0.9-0.9,1.6c0.1,0.8,0.9,1.3,1.2,2
			c0.3,0.7,0.3,1.5,0.7,2.1c0.5,0.7,1.2,0.9,1.9,1c1.9,0.4,2.7,2.2,3.5,3.8c0.1,0.3,0.6,0.4,0.9,0.2c1-0.7,2.1-1.4,2.3-2.7
			c0.1-0.5,0-0.9,0-1.4c0-0.2,0-0.4-0.1-0.5c0.6-0.2,1-0.5,0.9-1.3c-0.1-0.5-0.6-0.7-0.3-1.2c0.2-0.4,0.5-0.6,0.5-1.1
			c0.1-1-0.8-1.5-1.6-1.8c-0.7-0.3-0.5-0.8,0-1.2c0.4-0.4,0.7-0.7,1-1.1c0.2-0.4,0.4-0.8,0.3-1.3c0-0.2-0.1-0.4-0.2-0.6
			c-0.2-0.3-0.2-0.2,0-0.5c0.3-0.4,0.6-0.5,0.7-1c0.1-0.4-0.1-0.8-0.3-1.2C133.2,96.3,130.5,97.6,129.3,98.7z"/>
		<path id="XMLID_13_" class="st0" d="M146.1,101.8c0.1-0.6-0.1-1-0.2-1.6c0-0.3-0.1-0.2,0.1-0.4c0.1-0.1,0.3-0.2,0.4-0.3
			c0.5-0.7,0.1-1.6-0.5-1.9c-0.9-0.5-2.2-0.5-3.2-0.6c-1.3-0.1-2.6-0.2-3.8,0c-0.2,0-0.4,0.1-0.5,0.3c-0.6,0.2-1.2,0.5-1.4,1.2
			c-0.2,0.4-0.2,0.8,0,1.2c0.1,0.3,0.3,0.5,0.5,0.7c-0.2,0.1-0.4,0.1-0.6,0.1c-0.2,0-0.5,0.1-0.6,0.3c-0.3,0.8,0,1.4,0.6,1.9
			c0.5,0.4,0.3,0.5,0,0.9c-0.3,0.4-0.4,0.8-0.5,1.2c-0.2,1.9,1.4,3.6,2.8,4.6c0.5,0.3,1-0.1,1-0.6c0.1-0.6,0.1-1.2,0.2-1.8
			c0-0.1,0-0.2,0.1-0.3c0.1,0.1,0.2,0.2,0.4,0.3c0.7,0.4,1.6,0.1,2.1-0.5c0.7-0.8,0.6-1.9,1.5-2.5
			C145.3,103.3,146,102.8,146.1,101.8z"/>
	</g>
	<path id="XMLID_11_" class="st0" d="M214.4,200.5c0-0.5-0.5-0.8-1-0.6c-0.5,0.3-0.6-1.2-0.7-1.4c-0.1-0.3-0.2-0.7-0.5-0.9
		c-0.5-0.4-1.3-0.3-1.9,0c0-0.1,0.1-0.2,0.1-0.3c0-0.3,0-0.6-0.1-0.9c-0.2-0.5-0.7-0.8-1.3-0.7c0,0-0.1,0-0.2,0.1
		c0.1-0.1,0.1-0.3,0.1-0.3c0.1-0.3,0.2-0.7,0.2-1c0-0.6-0.3-1.2-0.8-1.5c-0.2-0.1-0.5-0.1-0.7,0c-0.4-0.1-0.9,0.1-0.9,0.6
		c-0.1,1.5-0.6,2.9-1.4,4.1c-0.5,0.6-0.9,1-1.6,1.3c-0.5,0.2-1,0.4-1.3,0.9c-0.3,0.5-0.1,0.8,0,1.4c0,0.2,0.1,0.1,0,0.2
		c-0.1,0.1-0.2,0.2-0.3,0.2c-0.2,0.2-0.4,0.3-0.5,0.5c-0.6,0.9,0.2,1.7,1.2,1.7c0.6,0,1.1-0.2,1.5-0.6c0.1-0.1,0.2-0.2,0.3-0.2
		c0,0,0,0,0,0c0,0,0,0,0.1,0.1c0.2,0.2,0.5,0.4,0.8,0.5c0.5,0.2,1,0.3,1.5,0.2c0.3,0,0.6-0.2,0.9-0.3c0.2-0.1,0.3-0.2,0.5-0.1
		c0.2,0.1,0,0.2,0,0.4c-0.4,1,0.5,1.8,1.5,1.4c0.5-0.2,0.9-0.5,1.3-0.8c0.1-0.1,0.4-0.6,0.6-0.6c0.1,0,0.2,0.4,0.2,0.6
		c0.3,1,1.4,1.4,2.2,0.6C214.8,203.8,214.5,201.8,214.4,200.5z"/>
	<g id="XMLID_7_">
		<path id="XMLID_10_" class="st0" d="M167.2,263c0.3,0.2,0.6,0.2,0.9,0.2c-0.1,0.2-0.1,0.5-0.2,0.7c0,0.3,0.3,0.5,0.5,0.5
			c1.2-0.1,2.4-0.2,3.7-0.3c1-0.1,2-0.1,3-0.5c0.3-0.1,0.6-0.6,0.2-0.8c-0.7-0.6-1.5-1-2.4-1.1c0-0.1,0-0.1,0-0.2
			c0-0.4-0.3-0.5-0.6-0.5c-0.5,0.1-1.1,0.2-1.6,0.1c-0.5-0.1-0.7-0.4-1-0.8c-0.3-0.5-0.7-0.5-1.2-0.5c-1.7,0.1-2.5-1.9-4-2.4
			c-0.7-0.2-1.5-0.2-2.2-0.1c-0.8,0-1.7,0.1-2.5,0.2c-0.8,0.1-1.6,0.3-2.3,0.7c-0.2,0.1-0.5,0.2-0.6,0.4c0,0.1-0.2,0.5-0.3,0.7
			c-0.2,0.1-0.3,0.3-0.5,0.4c-0.3,0.3-0.1,0.9,0.4,0.9c1.5,0,2.8-1.1,4.3-1.3c0,0.4,0.2,0.8,0.7,0.9c0.4,0.1,0.8-0.1,1.2,0
			c0.4,0.1,0.8,0.5,1.2,0.8c0.3,0.2,0.6,0.5,1,0.6c0.4,0.1,0.9,0,1.2,0.2C166.4,262,166.7,262.7,167.2,263z"/>
		<path id="XMLID_9_" class="st0" d="M185.2,266.2c-0.7-0.5-1.4-0.9-2.1-1.3c-0.6-0.3-0.7-0.9-1.4-1.2c-0.6-0.2-1.1,0-1.7,0
			c-0.5,0-0.9-0.2-1.3-0.3c-0.3,0-0.7,0-1,0.1c-0.9,0-1.6,0.5-1.8,1.4c-0.1,0.3,0.2,0.6,0.5,0.6c0.3,0,0.6,0.1,0.9,0.3
			c-0.9,0.1-1.7,0.3-2.6,0.4c-0.5,0.1-0.4,0.7-0.1,0.9c0.9,0.6,2,0.4,3,0.3c0.6-0.1,1.1,0,1.7,0.3c0.4,0.3,0.8,0.5,1.3,0.6
			c0.3,0,0.6-0.3,0.5-0.6c-0.2-0.8,0.9-0.3,1.1-0.3c0.2,0.1,0.5,0.1,0.7,0c0.7-0.1,1-0.8,1.9-0.5
			C185.2,267.2,185.6,266.5,185.2,266.2z"/>
		<path id="XMLID_8_" class="st0" d="M172.3,267.1c0-0.1-0.1-0.1-0.2-0.2c-0.9-0.4-1.9-1.1-2.9-1c-0.6,0.1-1.7,0.1-2.1,0.6
			c-0.2,0.1-0.4,0.2-0.4,0.5c-0.1,0.8,1,0.9,1.5,1c0.2,0,0.6,0,0.8,0.1c0,0,0,0.1,0.1,0.2c0.1,0.3,0.3,0.5,0.6,0.6
			c0.9,0.3,2-0.6,2.7-1C172.7,267.8,172.6,267.2,172.3,267.1z"/>
	</g>
	<path id="XMLID_1_" class="st1" d="M245.3,309.3c-1-0.6-2.2-0.8-3.3-0.9c-1.3-0.1-2-1.5-3.1-2.1c-1-0.6-2.1-0.9-3.2-0.9
		c-0.7,0-1.5,0.1-2.3,0c-0.8-0.1-1.3-0.5-2-0.8c-1-0.4-1.8,0.3-2.6,0.7c-0.2-0.7-0.4-1.5-0.7-2c-0.4-0.7-1.2-0.4-1.8-0.9
		c-0.6-0.5-1-0.9-1.8-1c-0.7-0.1-1.4,0.1-2.1,0.4c-0.7,0.3-1.4,0.9-2,1.4c-0.2,0.2-0.7,0.8-1,0.8c-0.3,0-0.1-0.1-0.2-0.4
		c0-0.2,0-0.3-0.1-0.5c0,0,0-0.1,0-0.1c0.6-0.1,1.1-0.3,1.4-0.9c0.4-0.8,0.2-1.8-0.8-2c-0.9-0.2-2.4,0.4-3,1.2
		c-0.1,0.2-0.2,0.4-0.3,0.6c0,0,0,0,0,0c-0.4,0.2-0.9,0.3-1.3,0.5c0-0.6,1.2-1,1.5-1.4c0.2-0.2,0.3-0.5,0.4-0.8
		c0.2-0.5,0.4-0.8,0.8-1.1c0.6-0.5,1.2-1.5,0.6-2.2c0.2-1.9-0.7-3.8-2.4-4.9c-0.9-0.5-1.9-0.8-2.7-1.5c-0.4-0.3-0.5-0.9-0.9-1.2
		c-0.4-0.3-0.6-0.2-1-0.1c-0.3,0-0.4,0.1-0.6-0.2c-0.2-0.2-0.3-0.4-0.5-0.5c-0.4-0.2-0.8-0.3-1.2-0.2c-0.5,0.1-1,0.4-1.5,0.6
		c-0.8,0.3-1.5-0.4-2.2-0.8c-1.2-0.8-2.3-1.8-3.4-2.8c-0.4-0.3-0.8-0.7-1.3-0.8c-0.3-0.1-0.7,0-1.1,0c0.2-0.3,0.2-0.8,0-1.1
		c-0.4-0.8-1.2-1-2-1.2c0,0,0,0,0,0c0.2-0.2,0.3-0.4,0.2-0.7c-0.7-1.3-2.3-1.1-3.4-0.5c-0.9,0.5-1.7,0.9-2.8,0.8
		c-1.1-0.1-1.9-0.6-2.8-1c-0.3-0.1-0.6-0.2-0.9-0.2c-0.4,0-0.9,0.3-1.3,0.2c-0.7-0.1-1.1-1-1.8-1.4c-0.7-0.3-1.5-0.3-2.2-0.1
		c-0.9,0.2-1.6,0.3-2.5,0.3c0.1-0.4,0-0.8-0.1-1.1c-0.1-0.4-0.6-0.4-0.8-0.2c-0.1,0-0.2,0.1-0.2,0.2c-1,1.6-3.3,1.3-4.9,2
		c-0.6,0.2-1.1,0.6-1.3,1.2c0,0.1,0,0.8,0.1,0.7c-0.1,0.1-0.7,0.1-0.9,0.2c-0.5,0.3-0.6,0.7-0.7,1.2c-0.2,0.5-0.3,0.5-0.7,0.8
		c-0.3,0.2-0.5,0.4-0.6,0.7c-0.1,0.3-0.1,0.5-0.2,0.8c-0.1,0.5-0.3,0.5-0.8,0.7c-0.5,0.3-0.8,0.7-0.8,1.3c-0.1,0.7,0.2,1.3,0.4,1.9
		c0.2,0.8,0.3,1.6,0.2,2.5c-0.1,0.9-0.4,1.7-1,2.4c-0.5,0.5-1.1,0.9-1.2,1.7c0,0.4,0.2,0.7,0.1,1.1c-0.1,0.3-0.5,0.6-0.8,0.8
		c-0.5,0.4-1.1,0.7-1.5,1.3c-0.4,0.6-0.5,1.4-0.9,2.1c-0.4,0.6-1.1,1-1,1.9c0.1,0.7,0.7,1.2,1.3,1.5c0.7,0.4,1.1,0.6,0.4,1.3
		c-0.3,0.3-0.9,0.6-1.3,0.8c-0.6,0.3-1.5,0.6-1.5,1.4c0,0.5,0.4,1,0.8,1.4c0,0-0.1,0-0.1,0.1c-0.2,0.2-0.3,0.4-0.3,0.6
		c-0.1,0.7,0.4,1.1,0.9,1.4c0.5,0.2,1,0.3,1.4,0.7c0.3,0.3,0.5,0.7,0.7,1.1c0.6,1,1.1,2.1,1.6,3.2c1.1,2.1,2.2,4.2,3.1,6.4
		c0.6,1.4,0.9,3.6,2.6,4.1c0,0,0,0,0,0c1.7,1.3,3.1,2.9,4.8,4.2c0.8,0.6,1.7,1.1,2.7,1.4c0.4,0.1,1,0.1,1.3,0.5
		c0.2,0.2,0.1,0.6,0.1,0.9c0,0.6-0.1,1.1-0.1,1.7c0,0.5,0.1,1,0.3,1.5c0.2,0.5,0.8,1,0.8,1.5c0.1,0.9-1.1,1.7-1.4,2.5
		c-0.4,1.1,0,2.4,0.3,3.5l0.6,2.4c-1.1,0.4-1.5,1.5-1.5,2.6c0,0.8-0.1,1.6-0.3,2.4c-0.2,0.7-0.4,1.4-0.5,2.1c-0.1,0.7-0.1,1.4,0,2.1
		c0.1,0.8,0.3,1.7,0.1,2.6c-0.2,0.5-0.5,1-0.6,1.6c-0.1,0.8,0.3,1.3,0.4,2.1c0.2,0.9-0.1,1.9-0.3,2.7c-0.2,0.9-0.4,1.7-0.6,2.6
		c-0.2,0.8-0.3,1.5-0.5,2.3c-0.2,0.8-0.4,1.3-1.2,1.6c-1,0.4-1,1.2-0.6,2.1c0.3,0.7,0.6,1.4,0.5,2.2c-0.1,0.8-0.5,1.4-0.9,2.1
		c-0.3,0.6-0.5,1.2-0.4,1.9c0.1,0.4,0.3,0.7,0.3,1.1c0,0.3-0.2,0.6-0.2,0.9c0,0.4,0.3,0.9,0.7,1c0.2,0.1,0.4,0.1,0.6,0
		c0.1,0,0.2-0.1,0.3-0.2c0.1,0,0.1-0.1,0.2-0.1c0.2,0.3,0.3,0.5,0.2,0.8c0,0.2,0.1,0.4,0.2,0.5c0,0.1-0.1,0.1-0.1,0.2
		c-0.2,2.3-1.1,4.2-1.9,6.3c-0.4,0.9-0.6,1.8-0.5,2.8c0,0.1,0.1,0.4,0.1,0.5c-0.1,0.2-0.2-0.2-0.3-0.3c-0.2-0.3-0.4-0.6-0.8-0.7
		c-0.3-0.1-0.7,0-0.7,0.3c-0.2,0.7-0.5,1.2-1.1,1.7c-0.2,0.1-0.3,0.4-0.2,0.6c0.2,0.4,0.4,0.6,0.9,0.7c0.3,0,0.6-0.1,0.8-0.1
		c0.5,0,0.5,0.3,0.5,0.8c0.1,0.6,0.5,1.3,1.1,1.4c0,0.1,0,0.3,0.1,0.4c-0.5,0.2-0.9,0.4-1.4,0.6c-0.4,0.2-0.2,0.8,0.1,0.9
		c1.5,0.6-0.1,1.8-0.3,2.6c-0.1,0.4,0,0.7,0.3,1c0.2,0.3,0.4,0.2,0.3,0.6c0,0.2-0.3,0.4-0.4,0.6c-0.5,0.9-0.4,1.7,0.2,2.6
		c0.6,0.8,1.5,1.2,2.2,1.9c-0.3,0.3-0.5,0.6-0.7,1c-0.1,0.3,0.2,0.7,0.5,0.6c1.1,0,0.8,1.4,1.7,1.7c0.3,0.1,0.6,0,0.9-0.1
		c-0.1,0.1-0.1,0.3-0.2,0.4c-0.1,0.3,0.2,0.6,0.5,0.6c0.7,0.1,1.2,0.5,1.4,1.1c0.2,0.4,0.8,0.5,1,0c0.1-0.5,0-0.9-0.2-1.3
		c-0.2-0.4-0.3-0.7,0-1.2c0.2-0.3,0.5-0.4,0.8-0.6c0.5-0.4,1.1-0.9,1.2-1.5c0.5,0.2,0.9,0.3,1.4,0.4c0.4,0.1,0.8-0.3,0.6-0.7
		c-0.6-1.3-1.4-2.7-0.9-4.2c0.2-0.6,0.6-1.1,1.1-1.4c0.4-0.2,0.8-0.4,1-0.9c0.3-0.6-0.1-1,0-1.6c0.1-0.6,1.1-1,1.5-1.4
		c1-0.8,1.8-1.9,2.3-3.1c0.1-0.3,0.1-0.5-0.2-0.7c-1.3-0.8-3.2-1.9-2.8-3.8c0.4-1.8,2.5-0.7,3.4-1.8c0.7-0.8,0.3-2,0.3-3
		c-0.1-0.7,0.1-1,0.7-1.3c0.5-0.2,0.9-0.6,0.8-1.1c0-0.3-0.2-0.5-0.5-0.5c-0.1,0,0.3-0.8,0.3-0.9c0-0.4-0.3-0.8-0.5-1.1
		c-0.5-0.9-0.6-1.9-0.4-2.9c1.2,0.7,2.5,1,3.9,0.8c0.6-0.1,1.2-0.3,1.3-0.9c0-0.6-0.2-1.4-0.4-2.1c0.4,0,0.7-0.1,1.1-0.3
		c0.3-0.2,0.3-0.5,0.1-0.8c2.2,0.3,4.4-0.6,6.1-1.9c0.6-0.4,1.1-0.9,1.6-1.4c0.5-0.4,1.1-0.9,1.4-1.4c0.3-0.4,0.2-0.9,0-1.3
		c-0.1-0.2-0.3-0.5-0.4-0.7c-0.2-0.4,0.1-0.6,0.4-1c0.3-0.3,0.1-0.9-0.4-0.9c-0.2,0-0.6-1.2-0.8-1.5c-0.2-0.2-0.4-0.3-0.6-0.4
		c-0.2-0.1-0.3-0.2-0.4-0.3c1.7,0.7,3.4,1,5.2,1.2c0.3,0,0.5-0.2,0.5-0.5c0.1,0.1,0.3,0.2,0.5,0.1c0.8-0.3,1.5-0.7,2.1-1.3
		c0.7-0.7,0.8-1.5,1.3-2.3c0.2-0.4,0.5-0.7,0.7-1c0.3-0.4,0.3-0.9,0.6-1.3c0.5-0.6,1.1-0.9,1.3-1.7c0-0.1,0-0.2,0-0.2
		c0.8-0.9,1.7-1.8,2.5-2.8c0.6-0.8,1.1-1.7,1-2.7c0-0.2-0.1-0.5,0-0.7c0.1-0.4,0.4-0.4,0.7-0.6c0.3-0.2,0.5-0.5,0.7-0.8
		c0.4-1-0.1-1.9-0.2-2.8c-0.3-1.5,1.1-1.5,2-2.2c0.3-0.2,0.5-0.5,0.7-0.8c0.2-0.4,0.2-0.8,0.5-1.1c0.2-0.2,0.5-0.2,0.8-0.3
		c1.3-0.3,2.4-0.8,3.6-1.2c1.4-0.5,2.9-0.7,4.4-0.6c0.4,0,0.7-0.5,0.4-0.8c-0.5-0.7,0-0.2,0.5-0.4c0.2-0.1,0.4-0.2,0.5-0.4
		c0.1-0.1,0.1-0.1,0.2-0.2c0.3-0.8,0.8-1.7,0.8-2.5c0-0.5,0.1-0.7,0.6-0.9c0.3-0.1,0.6-0.2,0.8-0.4c0.4-0.4,0.4-1,0.3-1.5
		c-0.2-0.5-0.3-0.8,0.1-1.2c0.3-0.2,0.5-0.4,0.7-0.7c0.8-1.5-0.3-3.5,0.2-5.1c0.2-0.7,0.8-1.2,0.5-1.9c-0.2-0.5-0.6-0.8-0.6-1.3
		c0-0.7,0.5-1.3,1.2-1.4c0.3,0,0.4-0.2,0.5-0.5c0.7-0.3,1.1-1,1.4-1.7c0.3-0.7,0.5-1.3,1.1-1.7c0.5-0.3,1-0.6,1.4-1.1
		c0.8-0.9,1.4-1.9,1.6-3c0.2-1.4,0.2-2.8,0.2-4.2C245.7,311.3,246.1,309.8,245.3,309.3z"/>
</g>
</svg>
