<?xml version="1.0" encoding="utf-8"?>
<!-- Generator: Adobe Illustrator 19.0.0, SVG Export Plug-In . SVG Version: 6.00 Build 0)  -->
<svg version="1.1" id="Layer_1" xmlns="http://www.w3.org/2000/svg" xmlns:xlink="http://www.w3.org/1999/xlink" x="0px" y="0px"
	 viewBox="0 0 120 95" style="enable-background:new 0 0 120 95;" xml:space="preserve">
<style type="text/css">
	.st0{fill:#6DC4CD;}
</style>
<path id="XMLID_9_" class="st0" d="M36.2,3.6c-0.1,0.8-0.9,1.7-0.9,2.4c0,0.7,0.2,1.4,1,1.6c0.2,0.1,0.5,0,0.6-0.2
	c0.6-1.2,2,0.6,2.5,1c0.7,0.6,1.5,0.9,2.4,1.2c1.7,0.5,5,1.2,4.6,3.7c-0.1,0.4,0.3,0.8,0.7,0.6c1.1-0.5,2.5,0.9,3.4,1.3
	c0.5,0.2,1,0.3,1.6,0.2c0.5-0.1,1-0.8,1.5-1c0.3,0.8,1.2,1.1,2.1,1c0.7-0.1,1.3-0.5,1.9-0.8c1-0.4,1.8-0.1,2.6,0.5
	c1.3,1,2.4,2.2,3.9,3c1.4,0.7,2.9,1.1,4.4,0.6c0.4-0.1,0.5-0.7,0.1-0.9c-1-0.8-1.9-1.6-2.7-2.5c-0.4-0.5-0.8-0.9-1.3-1.2
	c0.3-0.3,0.7-0.6,1-0.9c0.3-0.2,0.4-0.7,0-0.9c-1.2-0.7-2.4-1.3-3.7-2c0-0.5-0.2-1-0.6-1.3c-0.4-0.3-0.9-0.5-1.4-0.5
	C60,8,60,7.6,59.8,7.2c-0.4-1-1.4-1.4-2.4-1.7c-1.2-0.4-2.4-0.9-3.7-1.3c0,0,0,0,0,0c-0.6-0.9-1.1-1.6-2.2-1.8
	c-1.1-0.3-2.2-0.1-3.2,0c0,0,0,0,0,0c-1.1-0.3-2.3-0.5-3.3,0.1C44.1,3,43.7,4.1,43.2,5c-0.3,0.5-0.7,0.8-1.2,1
	c-0.8,0.2-0.9-0.2-1.1-0.9C40.5,4,39.7,4,38.8,3.9c-1.3-0.1-0.4-1.6-0.9-2.5c-0.7-1-2.6-0.2-3.4,0.2c-0.2,0.1-0.2,0.2-0.3,0.4
	C34.1,2.2,34,2.3,34,2.6C34.3,3.5,35.4,3.9,36.2,3.6z"/>
<path id="XMLID_8_" class="st0" d="M70.4,43.9c-2-1.5-2-4.2-3.8-5.8c-0.8-0.7-1.8-1.1-2.7-1.6c-1.3-0.7-1.9-1.5-2.2-2.9
	c-0.3-1.3-0.7-2.4-1.5-3.5c-0.8-1-1.8-1.9-2.8-2.8c-1-1-1.9-2-2.5-3.3c-0.7-1.5-1.1-3.1-1.4-4.7c-0.1-0.2-0.4-0.4-0.6-0.3
	c-1.7,0.7-1.2,2.9-1.2,4.4c0,2.4-0.4,4.8-1.1,7c-3.2-0.1-6.3-1.4-8.4-3.8c0.5-0.6,1-1.3,0.9-2.1c0-0.4-0.2-0.8-0.5-1.1
	c0.1-0.1,0.3-0.2,0.4-0.2c0.3-0.2,0.4-0.7,0-0.9c-0.9-0.4-1.7-0.8-2.6-1.2c-0.7-0.3-1.3-0.7-2.1-0.8c-0.9-0.2-2,0.1-2.1,1.2
	c0,0.2,0,0.3,0.1,0.4c-0.1,0.1-0.1,0.2-0.2,0.3c-1.1-0.3-2.2,0-3.2,0.5c-1,0.5-2.3,1.2-2.4,2.5c0,0.8,0.2,1.5-0.5,2.1
	c-0.6,0.5-1.6,0.4-2.1-0.2c-0.4-0.5-0.3-1.1-0.8-1.5c-0.4-0.3-0.9-0.4-1.4-0.3c-2.7,0.7-4.2,4-5.9,6c-2,2.4-4.3,4.4-7.1,5.8
	c-3.3,1.7-7,2.3-10.6,2.9c-0.4,0.1-0.5,0.7-0.1,0.9c1.6,1,0.7,2.4,0.3,3.8c-0.3,1.2-0.3,2.4-0.1,3.7c0.5,2.8,1.9,5.2,3,7.7
	c0.5,1.3,1,2.6,1,4c0,0.7,0,1.4-0.1,2.1c-0.1,0.6-0.5,1.1-0.6,1.7c-0.1,0.7,0.3,1.3,0.8,1.6C6.9,65.5,8,65.8,8,66.4
	c0,0.3,0.3,0.6,0.6,0.5c1.4-0.4,2.8-0.8,4.2-1.1c0.7-0.2,1.3-0.4,2-0.5c0.9-0.2,1.6-0.1,2.6,0c1,0.2,1.7-0.1,2.3-0.9
	c0.2-0.4,0.4-0.8,0.6-1.2c0.4-0.6,0.9-0.8,1.5-0.9c1.2-0.2,2.2-0.3,3.3-0.8c1.3-0.6,2.5-1.3,3.9-1.7c2.5-0.8,5.2-1,7.7-0.2
	c2.5,0.9,4.6,2.8,5.3,5.4c0.1,0.4,0.6,0.5,0.8,0.2c0.6-0.6,1.7-2,2.6-2c1.2,0.1,0.5,1.6,0.2,2.2c-0.1,0.2-0.1,0.4,0.1,0.6
	c1,1,2,2,2.8,3.1c0.5,0.6,0.9,1.1,1.2,1.8c0.2,0.5,0.4,1,0.7,1.5c1.2,1.7,3.6,1.2,5.1,2.4c0.2,0.2,0.4,0.2,0.6,0.1
	c0.6-0.3,1.2-0.6,1.7-1.1c1.4,1.3,4.1,0.4,5.6,0c1.3-0.4,2.7-0.8,3.8-1.4c1-0.5,1-1.5,0.6-2.4c-1.1-2.9,1-5.3,2.7-7.4
	c0.8-1,1.5-2,1.9-3.2c0.5-1.3,0.4-2.6,0.2-4c-0.2-1.5-0.3-2.9,0.3-4.4c0.5-1,1.1-2.1,1-3.3C73.9,45.8,71.8,44.9,70.4,43.9z"/>
<path id="XMLID_7_" class="st0" d="M61.5,79.8c-0.7,0.3-1.5,0.5-2-0.3c-0.2-0.4-0.4-0.7-0.7-1c0-0.1-0.1-0.1-0.1-0.2
	c-0.5-0.6-1.4-0.6-2-0.1c-0.9,0.8-0.2,2.1,0.1,3c0.5,1.3,1.1,2.8,1.9,4c0.7,1.1,2,0.4,3,0.1c1-0.4,1.9-0.9,2.3-1.9
	c0.4-1,0.4-2.1,0-3C63.5,79.1,62.5,79.4,61.5,79.8z"/>
<path id="XMLID_6_" class="st0" d="M118.5,71.4c-0.5-0.2-1-0.4-1.6-0.4c-0.6,0-1.1,0.2-1.7,0.3c-1.4,0.3-1.6-1.9-2.5-2.6
	c-0.2-0.1-0.4-0.2-0.5-0.3c-0.4-0.3-0.5-0.6-0.7-1c-0.2-0.4-0.4-0.8-0.8-1.1c-0.7-0.7-1.7-1.1-2.6-1.5c0,0-0.1,0-0.1,0
	c-0.1-0.1-0.2-0.1-0.3-0.1c-0.3,0-0.5,0.2-0.5,0.5v0.3c0,0.1,0,0.2,0.1,0.3c0,0,0,0.1,0.1,0.1c0.7,1.1,1.4,2.2,2.1,3.4
	c0.3,0.5,0.7,1,0.8,1.6c0.1,0.6,0,1.1,0.1,1.7c0,0.4,0.2,0.8,0.4,1.2c0.1,0.2,0.4,0.5,0.3,0.7c0,0.4-0.4,0.3-0.7,0.4
	c-0.7,0.1-1.2,0.4-1.3,1.1c0,0.2,0.2,0.4,0.4,0.5c0.4,0.1,0.8,0.1,1.1,0.5c0.2,0.3,0.2,0.6,0.5,0.9c0.6,0.7,1.1,1.2,0.8,2.3
	c-0.1,0.4,0.2,0.7,0.6,0.6c0.9-0.2,1.6-0.8,2-1.6c0.2-0.4,0.3-0.8,0.4-1.2c0-0.2,0-0.4,0.1-0.7c0.2-0.6,0.4-0.6,0.9-0.8
	c0.7-0.2,1.6-0.6,1.6-1.5c0-0.2-0.1-0.3-0.1-0.5c-0.1-0.4,0-0.5,0.1-0.8c0.3-0.6,0.8-1.2,1.2-1.7C118.8,71.8,118.7,71.5,118.5,71.4z
	"/>
<path id="XMLID_5_" class="st0" d="M106.9,78.2c-0.1,0-0.2,0.1-0.2,0.2c0,0,0,0,0,0c-1.4,1.2-1.1,3.3-2.5,4.5
	c-0.6,0.5-1.3,1-1.8,1.6c-0.2,0.2-0.4,0.5-0.5,0.8c-0.2,0.5-0.2,1.1-0.6,1.5c-0.4,0.3-1,0.5-1.4,0.7c-0.6,0.3-1.2,0.5-1.7,0.8
	c-1.1,0.5-2.4,0.9-3.3,1.5c-0.5,0.4-0.8,1-0.4,1.6c0.4,0.7,1.3,0.9,2,0.8c0.5-0.1,0.9-0.2,1.4-0.1c0.5,0.2,0.9,0.6,1.3,0.9
	c0.6,0.5,1.3,1,2.1,0.7c0.3-0.1,0.5-0.4,0.7-0.5c0.4-0.2,0.6,0.2,1,0.2c0.8,0,1.3-1.1,1.5-1.7c0.1-0.4,0.2-0.8,0.2-1.1
	c0-0.5-0.4-1.8,0.5-1.9c0.3,0,0.6,0.2,0.9,0.1c0.3-0.1,0.5-0.3,0.7-0.6c0.2-0.5-0.1-1.3,0.1-1.8c0.2-0.3,0.8,0,1.1,0
	c0.4,0,0.7,0,1-0.3c0.7-0.6,0.4-1.7,0.3-2.4c-0.1-0.7,0.1-1,0.6-1.5c0.3-0.4,0.5-0.8,0.6-1.3C110.4,79,108.6,77.6,106.9,78.2z"/>
</svg>
